<?xml version="1.0" encoding="UTF-8" standalone="no"?>
<!DOCTYPE svg PUBLIC "-//W3C//DTD SVG 1.1//EN" "http://www.w3.org/Graphics/SVG/1.1/DTD/svg11.dtd">
<svg xmlns="http://www.w3.org/2000/svg" version="1.1" viewBox="0 0 512 512">
<g stroke-width="2.00" fill="none" stroke-linecap="butt">
<path stroke="#ececf0" vector-effect="non-scaling-stroke" d="
  M 142.39 447.94
  L 142.13 448.00
  Q 141.82 448.06 142.06 448.28
  Q 143.61 449.67 145.52 450.32
  C 150.43 452.00 154.77 454.80 159.62 456.74
  Q 169.31 460.62 170.33 461.04
  C 183.67 466.57 198.08 469.46 212.24 472.04
  Q 215.72 472.67 220.25 472.74
  Q 228.81 472.88 238.57 474.40
  Q 242.08 474.95 244.30 474.31
  A 1.65 1.61 -43.7 0 1 245.25 474.32
  Q 247.71 475.07 250.24 475.08
  C 255.21 475.10 260.15 476.04 264.75 476.01
  Q 278.56 475.93 294.50 473.77
  Q 298.18 473.27 300.73 472.65
  C 306.49 471.25 311.50 470.70 316.95 469.59
  C 321.80 468.60 326.61 466.17 331.70 464.75
  Q 340.20 462.38 348.05 458.34
  Q 349.70 457.49 351.50 457.03
  A 0.55 0.52 -80.0 0 0 351.84 456.78
  L 352.05 456.43
  A 0.79 0.77 -75.9 0 1 352.65 456.06
  C 356.61 455.70 359.77 453.49 362.56 452.30
  Q 370.66 448.87 378.55 444.98
  C 380.10 444.22 381.37 442.76 383.29 441.77
  C 387.68 439.51 391.40 435.65 395.81 433.11
  Q 403.38 428.74 409.41 422.45
  Q 411.27 420.52 413.98 418.55
  C 417.93 415.68 419.58 411.46 423.66 409.38
  A 1.42 1.41 87.7 0 0 424.34 408.64
  Q 424.91 407.23 425.98 406.16
  Q 426.37 405.77 426.90 405.59
  Q 428.98 404.91 429.55 402.87
  A 1.51 1.48 -13.1 0 1 430.02 402.13
  C 433.31 399.38 433.72 396.05 435.84 392.99
  C 440.31 386.53 444.19 380.17 448.95 373.49
  Q 462.22 354.86 471.25 332.53
  Q 471.51 331.88 471.51 331.40
  A 1.25 1.25 0.0 0 1 471.85 330.57
  C 473.98 328.38 474.47 325.71 475.44 323.48
  Q 481.94 308.52 484.23 292.33
  A 0.77 0.76 85.8 0 1 484.76 291.71
  Q 485.57 291.47 486.06 290.72
  Q 486.33 290.31 486.72 290.01
  L 488.86 288.40
  A 0.20 0.20 0.0 0 0 488.83 288.06
  L 488.56 287.93
  A 0.20 0.19 -62.2 0 1 488.48 287.66
  Q 492.21 281.03 492.48 277.69
  C 493.22 268.34 490.19 253.37 491.17 241.18
  C 491.54 236.61 489.95 232.48 490.19 228.25
  Q 490.64 220.04 489.06 213.63
  C 488.59 211.72 488.97 209.93 488.60 208.03
  Q 488.10 205.46 488.14 203.91
  C 488.25 199.57 486.15 197.73 485.36 194.29
  Q 484.72 191.47 484.03 189.94
  C 482.29 186.09 481.58 181.72 479.99 178.23
  C 478.52 174.98 477.37 172.61 475.91 168.64
  Q 475.21 166.74 473.70 164.33
  C 471.29 160.50 471.49 153.94 466.97 150.06
  C 464.76 148.18 463.85 146.13 462.02 144.02
  A 1.34 1.32 -66.3 0 1 461.70 143.18
  Q 461.66 140.55 459.23 139.69
  A 1.45 1.43 82.6 0 1 458.50 139.12
  Q 456.00 135.26 456.46 130.69
  A 1.65 1.62 35.0 0 0 456.30 129.83
  Q 455.17 127.54 456.53 124.84
  A 1.07 1.06 -55.2 0 0 456.31 123.59
  C 451.74 119.21 453.41 110.25 449.83 105.42
  Q 447.79 102.67 443.12 94.07
  C 441.15 90.45 436.52 91.75 434.50 86.62
  A 1.25 1.23 -89.6 0 0 433.86 85.96
  Q 429.85 84.21 427.69 81.81
  C 425.22 79.05 428.38 76.84 426.89 74.59
  Q 424.06 70.31 419.19 68.05
  C 416.86 66.97 415.84 65.89 416.00 63.34
  A 1.32 1.30 27.4 0 0 415.70 62.43
  L 413.41 59.68
  A 1.81 1.75 -10.0 0 0 412.61 59.14
  C 409.59 58.18 409.97 55.94 408.02 54.24
  Q 399.37 46.72 390.02 42.48
  C 382.19 38.93 376.15 35.29 367.61 34.40
  A 1.83 1.78 -54.2 0 0 366.65 34.57
  C 364.51 35.59 362.45 33.50 360.26 33.08
  Q 357.35 32.53 356.86 32.33
  Q 340.81 25.93 324.26 20.99
  Q 320.51 19.87 317.03 15.88
  A 0.93 0.93 0.0 0 0 316.20 15.57
  Q 312.53 16.06 311.13 12.63
  A 0.95 0.95 0.0 0 0 310.48 12.06
  L 308.65 11.61
  A 1.61 1.52 74.1 0 1 307.86 11.14
  C 305.49 8.52 303.08 10.38 300.62 10.46
  Q 295.42 10.64 290.30 11.65
  C 284.01 12.88 276.50 11.44 270.11 10.98
  C 261.47 10.35 252.91 11.88 244.35 12.92
  C 237.58 13.74 231.34 16.27 223.88 15.88
  Q 219.03 15.62 216.13 15.87
  C 210.28 16.36 205.12 15.01 200.59 17.45
  C 195.73 20.06 190.56 22.32 184.91 22.55
  C 180.88 22.71 176.19 22.70 172.56 24.71
  Q 169.12 26.62 165.26 27.41
  C 161.67 28.15 157.67 30.48 153.94 32.31
  C 151.24 33.63 148.28 33.85 145.80 35.18
  Q 142.77 36.82 139.86 38.68
  C 136.51 40.83 133.01 40.93 129.23 41.86
  A 1.31 1.28 -81.5 0 0 128.41 42.48
  Q 126.45 45.92 122.41 45.82
  A 1.25 1.21 23.6 0 0 121.55 46.14
  Q 117.70 49.66 112.08 53.09
  Q 110.48 54.06 110.36 56.22
  A 0.93 0.90 80.6 0 1 109.82 57.00
  Q 107.84 57.87 105.69 58.25
  A 2.01 1.97 -69.3 0 0 104.76 58.68
  L 102.72 60.40
  A 1.92 1.90 79.5 0 0 102.15 61.24
  C 101.18 64.23 99.34 64.10 97.12 65.84
  Q 95.86 66.83 94.67 67.13
  C 92.48 67.68 89.86 67.89 88.15 69.42
  C 84.13 73.02 81.55 77.68 78.38 81.46
  Q 76.31 83.93 74.28 86.43
  C 71.93 89.32 70.74 92.26 69.49 95.64
  A 0.27 0.27 0.0 0 0 69.74 96.00
  L 70.01 96.00
  A 0.21 0.21 0.0 0 1 70.20 96.15
  L 71.00 99.12
  A 1.17 1.17 0.0 0 1 70.90 100.00
  Q 68.97 103.46 67.49 107.12
  C 66.18 110.33 63.85 111.47 60.74 109.77
  A 1.12 1.11 46.5 0 0 59.77 109.74
  Q 57.12 110.95 55.07 113.04
  A 0.73 0.72 58.0 0 0 54.90 113.79
  Q 55.42 115.26 55.13 116.75
  A 0.71 0.71 0.0 0 1 54.56 117.32
  C 50.25 118.11 48.14 117.12 46.64 122.34
  Q 46.09 124.25 43.09 128.63
  Q 39.41 134.00 37.44 140.16
  C 36.52 143.05 36.87 146.45 35.47 149.74
  Q 35.27 150.23 35.32 150.76
  Q 35.71 154.77 33.36 157.98
  A 1.63 1.60 -29.6 0 0 33.05 159.07
  Q 33.10 159.77 32.45 160.02
  A 0.75 0.74 77.3 0 0 31.98 160.77
  C 32.37 165.47 31.11 169.56 31.51 174.24
  A 1.41 1.38 -30.5 0 1 31.27 175.14
  C 28.39 179.32 28.40 182.97 27.41 187.43
  C 26.54 191.37 25.81 194.90 24.53 199.12
  Q 22.95 204.32 22.21 209.75
  C 21.81 212.72 23.40 215.06 23.71 217.50
  C 23.89 218.88 24.05 223.54 25.46 223.96
  A 0.56 0.55 12.7 0 1 25.85 224.57
  C 16.95 285.26 38.84 346.12 79.69 390.90
  C 85.66 397.43 91.79 401.91 97.02 409.59
  C 104.66 420.80 109.98 425.40 121.31 431.70
  C 125.18 433.85 128.64 438.23 132.19 440.76
  Q 137.26 444.38 142.39 447.91
  Q 142.44 447.93 142.39 447.94"
/>
<path stroke="#7b7b83" vector-effect="non-scaling-stroke" d="
  M 78.79 226.50
  Q 72.75 232.65 66.50 238.61
  C 59.54 245.24 69.24 250.24 74.61 253.90"
/>
<path stroke="#db838b" vector-effect="non-scaling-stroke" d="
  M 74.61 253.90
  C 72.70 260.66 73.84 268.44 73.76 275.46
  A 1.63 1.60 -61.7 0 0 74.03 276.39
  C 76.22 279.74 82.78 282.74 86.25 284.96"
/>
<path stroke="#f8f8f9" vector-effect="non-scaling-stroke" d="
  M 86.25 284.96
  Q 85.79 285.06 85.37 284.99
  A 0.39 0.38 -75.3 0 0 84.95 285.24
  L 84.46 286.71
  A 1.79 1.78 48.8 0 0 84.40 287.69
  C 88.32 306.09 98.40 321.86 106.97 338.30
  C 110.10 344.28 113.46 350.10 117.23 354.52
  C 129.29 368.66 144.59 383.32 163.44 392.36
  C 169.22 395.14 173.84 392.96 177.58 399.52
  A 1.67 1.64 87.7 0 0 178.27 400.17
  Q 187.48 404.71 190.68 405.85
  C 200.67 409.41 205.99 411.07 213.74 417.01
  Q 214.13 417.31 214.34 417.76
  C 217.19 423.98 233.10 423.68 238.69 423.64
  Q 239.62 423.64 240.22 423.20
  A 0.80 0.79 38.2 0 1 241.02 423.11
  Q 242.22 423.64 243.52 423.38
  Q 244.01 423.28 243.52 423.21
  L 243.00 423.15
  Q 242.42 423.07 242.98 422.90
  Q 255.13 419.27 267.77 419.04
  C 276.34 418.89 284.90 416.66 293.31 415.25
  C 303.50 413.54 313.17 410.38 323.14 407.76
  C 331.05 405.68 337.61 402.31 346.32 398.17
  C 367.55 388.07 383.29 374.56 397.47 356.02
  C 403.93 347.57 409.48 337.00 415.32 327.38
  C 421.53 317.15 427.38 303.94 430.74 295.20
  Q 438.49 275.01 439.71 251.02
  C 440.01 245.31 439.09 239.17 438.74 233.20
  Q 437.98 220.12 427.97 211.94"
/>
<path stroke="#db838b" vector-effect="non-scaling-stroke" d="
  M 427.97 211.94
  C 429.98 210.00 437.41 204.19 437.47 201.69
  Q 437.68 192.74 436.75 183.28"
/>
<path stroke="#7b7b83" vector-effect="non-scaling-stroke" d="
  M 436.75 183.28
  C 440.43 179.29 446.34 174.34 448.97 169.71
  C 452.52 163.46 432.76 155.02 428.23 152.83"
/>
<path stroke="#f8f8f9" vector-effect="non-scaling-stroke" d="
  M 428.23 152.83
  Q 429.75 147.81 427.75 143.73
  Q 427.31 142.83 422.64 136.79
  C 416.47 128.83 410.60 122.55 402.27 115.60
  Q 385.60 101.70 370.18 86.42
  C 366.73 83.00 364.63 79.04 360.39 76.47
  C 351.42 71.02 343.46 66.21 333.68 59.90
  C 317.64 49.56 298.91 45.64 280.49 43.30
  C 269.72 41.92 258.50 40.13 248.11 40.74
  C 235.28 41.49 223.81 44.18 210.06 47.03
  C 202.10 48.67 194.83 52.89 186.06 56.80
  Q 165.02 66.18 147.85 83.12
  C 136.22 94.60 124.11 105.00 111.46 115.29
  Q 111.35 115.38 111.48 115.41
  L 111.77 115.49
  A 0.37 0.37 0.0 0 1 111.95 116.09
  C 104.86 123.88 98.25 132.58 90.06 139.20
  C 85.79 142.65 82.10 153.64 80.13 158.87
  C 77.57 165.63 80.35 170.11 81.40 176.25
  A 0.30 0.30 0.0 0 0 81.71 176.51
  L 82.04 176.50
  A 0.37 0.36 88.5 0 1 82.42 176.87
  Q 82.44 180.23 81.09 183.28
  A 0.35 0.35 0.0 0 1 80.60 183.44
  L 80.35 183.30
  A 0.43 0.43 0.0 0 0 79.72 183.61
  Q 79.46 185.28 78.45 186.59
  A 1.46 1.41 61.7 0 0 78.16 187.62
  Q 78.43 190.11 79.95 192.17
  A 1.42 1.40 -59.9 0 1 80.21 193.18
  Q 80.10 194.16 79.56 194.88
  C 78.17 196.73 76.85 199.47 76.57 201.05
  C 76.19 203.26 79.46 204.59 77.40 206.74
  A 1.36 1.32 69.1 0 0 77.04 207.58
  Q 76.56 217.19 78.79 226.50"
/>
<path stroke="#838289" vector-effect="non-scaling-stroke" d="
  M 428.23 152.83
  Q 408.93 143.06 400.74 138.52
  C 357.73 114.69 314.04 91.87 270.18 69.65
  C 260.92 64.96 255.98 62.78 247.58 70.33
  C 190.53 121.54 134.85 174.22 78.79 226.50"
/>
<path stroke="#660d1b" vector-effect="non-scaling-stroke" d="
  M 436.75 183.28
  Q 384.03 238.52 357.81 263.31
  Q 338.50 281.57 327.57 292.72
  C 322.00 298.41 315.47 304.17 309.69 310.20
  C 295.28 325.24 280.30 339.67 265.85 354.69
  C 262.97 357.67 257.46 357.86 254.24 356.02
  C 241.40 348.67 227.17 341.50 215.31 334.86
  Q 185.36 318.09 155.63 300.97
  C 128.60 285.40 101.06 270.39 74.61 253.90"
/>
<path stroke="#e28a91" vector-effect="non-scaling-stroke" d="
  M 427.97 211.94
  C 410.58 229.68 393.29 247.56 375.59 265.00
  C 361.11 279.27 347.14 294.03 332.71 308.36
  Q 299.24 341.61 266.63 375.79"
/>
<path stroke="#650c15" vector-effect="non-scaling-stroke" d="
  M 266.63 375.79
  Q 266.11 366.88 266.85 356.56
  A 0.57 0.57 0.0 0 0 265.75 356.32
  Q 264.78 358.89 264.86 362.50
  Q 265.03 370.26 263.73 377.99
  A 0.83 0.83 0.0 0 1 263.18 378.64
  Q 261.54 379.21 261.50 380.71"
/>
<path stroke="#e28a91" vector-effect="non-scaling-stroke" d="
  M 261.50 380.71
  C 258.11 381.51 256.60 380.30 253.85 378.85
  Q 222.68 362.51 186.28 341.50
  Q 149.59 320.33 86.25 284.96"
/>
<path stroke="#828183" vector-effect="non-scaling-stroke" d="
  M 261.50 380.71
  Q 266.06 379.69 266.63 375.79"
/>
<path stroke="#6b1e25" vector-effect="non-scaling-stroke" d="
  M 335.28 135.57
  C 335.19 135.32 335.27 135.40 335.06 135.29
  Q 299.37 116.88 263.81 98.19
  C 259.50 95.92 255.35 91.08 250.38 95.62
  Q 245.50 100.10 240.66 104.61
  Q 240.30 104.94 239.82 105.06
  Q 238.85 105.30 238.02 106.28
  C 233.74 111.28 226.61 116.18 223.19 119.10
  C 214.95 126.14 206.39 132.98 198.63 140.37
  Q 163.30 174.01 127.68 207.35
  C 121.42 213.21 112.40 222.78 103.45 229.46
  A 0.50 0.49 44.6 0 0 103.46 230.26
  L 104.46 231.00
  A 0.91 0.91 0.0 0 1 104.74 232.16
  C 102.66 236.26 104.99 236.92 108.23 238.73
  C 138.16 255.45 167.72 272.82 197.69 289.47
  C 218.22 300.89 238.17 313.40 258.58 325.09
  A 1.27 1.27 0.0 0 0 259.51 325.22
  C 265.86 323.59 273.63 313.60 279.12 308.36
  C 303.84 284.80 328.25 260.88 353.10 237.46
  Q 380.88 211.28 407.67 184.04
  A 0.47 0.47 0.0 0 0 407.60 183.32
  Q 400.97 178.86 401.89 170.76
  A 0.64 0.62 -77.8 0 0 401.48 170.10
  Q 396.59 168.36 388.58 163.91
  Q 374.94 156.33 335.43 135.75
  A 0.32 0.32 0.0 0 1 335.28 135.57"
/>
<path stroke="#6b1d1f" vector-effect="non-scaling-stroke" d="
  M 108.44 230.06
  Q 111.31 233.62 112.11 238.32
  A 0.71 0.70 89.4 0 0 112.69 238.89
  C 121.55 240.40 128.03 245.70 135.43 249.82
  Q 188.18 279.17 240.54 309.24
  Q 246.49 312.66 252.19 316.49
  C 254.86 318.29 259.33 320.57 262.22 317.97
  Q 288.61 294.22 322.36 261.61
  Q 355.10 229.97 387.73 198.22
  C 391.12 194.92 397.44 188.38 402.61 183.75
  A 0.57 0.57 0.0 0 0 402.59 182.88
  C 399.42 180.37 394.68 176.60 397.80 172.00
  A 0.31 0.31 0.0 0 0 397.47 171.52
  Q 394.76 172.15 392.59 170.59
  C 386.03 165.88 378.56 162.88 371.48 159.09
  Q 335.66 139.92 299.45 121.48
  C 289.63 116.48 275.21 108.35 262.62 102.60
  C 260.25 101.52 259.02 100.14 257.22 98.58
  Q 255.30 96.92 253.67 98.87
  C 250.65 102.50 247.08 103.72 243.91 106.81
  Q 241.32 109.33 236.33 113.34
  Q 229.49 118.83 203.48 141.48
  Q 187.75 155.17 128.88 211.63
  C 121.18 219.01 114.03 227.71 108.23 229.54
  A 0.25 0.25 0.0 0 0 108.11 229.93
  Q 108.24 230.11 108.44 230.06"
/>
<path stroke="#650c15" vector-effect="non-scaling-stroke" d="
  M 250.61 112.59
  Q 250.64 114.27 250.01 115.52
  A 1.20 1.20 0.0 0 1 249.30 116.12
  Q 243.45 117.99 240.02 120.77
  C 225.49 132.58 208.40 147.89 193.19 162.34
  C 171.42 183.03 148.91 203.00 127.71 224.26
  C 126.48 225.49 124.69 226.32 123.23 227.45
  A 0.74 0.73 62.7 0 0 122.98 228.25
  C 124.97 235.03 129.47 238.74 135.58 241.77
  Q 152.40 250.09 168.43 259.81
  C 195.71 276.35 224.15 290.40 251.38 307.71
  A 1.58 1.52 -29.4 0 0 252.31 307.95
  C 254.93 307.81 256.70 306.93 259.29 307.84
  A 0.91 0.90 35.9 0 0 260.15 307.71
  Q 265.94 303.23 277.08 292.83
  Q 341.31 232.86 376.88 198.13
  Q 384.34 190.85 387.41 187.27"
/>
<path stroke="#6b1d1f" vector-effect="non-scaling-stroke" d="
  M 387.41 187.27
  L 390.18 184.61
  A 0.52 0.52 0.0 0 0 390.20 183.89
  Q 387.40 180.89 385.77 177.17
  C 384.18 173.51 382.83 172.70 379.54 170.98
  Q 328.46 144.34 277.19 118.05
  C 274.34 116.58 265.27 110.53 262.75 110.46
  Q 256.46 110.27 250.61 112.59"
/>
<path stroke="#cb262d" vector-effect="non-scaling-stroke" d="
  M 387.41 187.27
  Q 388.88 184.87 387.98 183.22
  Q 385.69 179.01 383.47 174.69
  A 1.73 1.67 1.9 0 0 382.80 174.00
  Q 372.14 168.01 361.14 162.64
  C 360.07 162.11 359.08 161.31 357.85 160.74
  C 349.68 156.93 341.92 152.21 333.71 148.49
  Q 330.31 146.94 326.10 144.44
  C 321.12 141.47 315.19 138.90 310.66 136.41
  C 296.72 128.75 282.42 121.72 268.41 114.21
  C 266.69 113.29 264.25 111.16 261.75 111.49
  Q 256.30 112.21 250.61 112.59"
/>
<path stroke="#cb262d" vector-effect="non-scaling-stroke" d="
  M 212.10 256.47
  Q 216.45 255.21 219.55 258.68
  A 0.84 0.83 61.1 0 0 220.40 258.93
  L 221.04 258.75"
/>
<path stroke="#650c15" vector-effect="non-scaling-stroke" d="
  M 221.04 258.75
  Q 227.64 261.33 232.57 266.06
  A 1.37 1.36 -38.2 0 0 234.20 266.25
  Q 239.71 263.04 242.39 257.19
  A 1.79 1.76 -3.3 0 1 243.09 256.42
  Q 248.85 252.98 253.71 248.33
  A 0.65 0.65 0.0 0 0 253.86 247.59
  L 251.00 241.29"
/>
<path stroke="#cb262d" vector-effect="non-scaling-stroke" d="
  M 251.00 241.29
  L 251.75 240.79"
/>
<path stroke="#650c15" vector-effect="non-scaling-stroke" d="
  M 251.75 240.79
  Q 253.61 241.41 254.16 243.30
  A 0.78 0.77 85.8 0 0 254.79 243.85
  C 258.23 244.36 262.55 241.29 264.59 239.00
  A 0.98 0.97 -34.9 0 0 264.77 238.02
  L 264.28 236.67
  Q 264.14 236.29 264.11 235.88
  L 263.72 229.32
  Q 263.61 227.53 265.12 228.51
  Q 267.28 229.91 268.53 232.17
  A 0.62 0.61 61.2 0 0 269.37 232.42
  L 279.77 226.67
  A 0.96 0.96 0.0 0 0 280.27 225.81
  Q 280.24 224.20 278.63 223.85
  A 0.50 0.50 0.0 0 1 278.26 223.21
  L 279.66 218.51
  A 0.48 0.48 0.0 0 1 280.36 218.23
  C 285.01 220.88 290.92 215.61 293.56 211.56
  A 1.34 1.33 -33.0 0 0 293.76 210.65
  L 293.51 208.97
  A 0.78 0.78 0.0 0 1 294.05 208.10
  Q 299.85 206.30 303.96 201.88
  A 1.47 1.46 46.6 0 0 304.01 199.95
  L 299.94 195.04
  A 0.60 0.59 -32.4 0 1 300.15 194.12
  Q 304.50 192.11 305.67 196.54
  A 0.73 0.73 0.0 0 0 306.51 197.08
  Q 312.11 196.11 315.43 191.66
  A 2.37 2.35 42.1 0 0 315.27 188.64
  Q 312.00 185.10 311.76 180.26
  A 0.52 0.51 9.5 0 1 312.47 179.76
  Q 317.24 181.72 319.17 186.43
  A 0.44 0.44 0.0 0 0 319.80 186.64
  C 322.53 185.03 329.06 180.61 329.00 177.54"
/>
<path stroke="#cb262d" vector-effect="non-scaling-stroke" d="
  M 329.00 177.54
  Q 330.18 176.49 330.79 175.00"
/>
<path stroke="#650c15" vector-effect="non-scaling-stroke" d="
  M 330.79 175.00
  C 333.88 173.92 340.13 170.99 340.25 167.13
  Q 340.34 164.31 337.56 162.95
  Q 317.28 153.07 297.26 142.66
  Q 295.58 141.79 294.21 141.74
  C 289.75 141.61 279.24 152.49 276.15 155.72
  A 0.90 0.90 0.0 0 0 276.46 157.17
  C 282.90 159.81 288.23 164.10 294.19 167.45
  A 0.63 0.63 0.0 0 1 294.28 168.49
  L 283.99 176.97
  A 0.36 0.35 -27.1 0 1 283.42 176.79
  Q 281.78 170.80 280.26 164.76
  C 279.40 161.31 277.97 159.53 274.50 158.97
  A 1.34 1.33 -59.8 0 0 273.46 159.25
  L 261.84 168.79
  A 1.42 1.42 0.0 0 0 261.92 171.05
  Q 264.41 172.81 267.49 172.83
  A 1.50 1.49 64.2 0 1 268.37 173.14
  C 271.80 175.82 275.62 179.71 280.16 180.18
  Q 280.65 180.24 280.34 180.62
  C 278.71 182.65 274.30 186.85 271.45 186.39
  C 267.02 185.69 267.10 174.61 260.30 172.58
  A 1.27 1.24 -51.0 0 0 259.30 172.70
  Q 253.27 176.35 248.16 181.15
  A 1.09 1.09 0.0 0 0 248.45 182.93
  C 254.89 185.87 260.44 190.00 266.91 192.99
  A 0.50 0.50 0.0 0 1 267.11 193.72
  Q 265.70 195.81 263.43 196.97
  A 1.00 0.99 -42.2 0 1 262.46 196.93
  C 257.74 193.96 250.59 188.62 245.24 187.51
  A 1.37 1.32 -52.7 0 0 244.32 187.65
  C 242.39 188.74 241.19 189.27 238.84 189.77
  C 235.56 190.48 234.72 194.80 238.46 196.25
  Q 246.83 199.48 254.44 204.44
  A 0.56 0.56 0.0 0 1 254.64 205.16
  C 251.85 211.10 244.77 209.78 243.43 203.61
  A 0.91 0.90 -85.2 0 0 242.88 202.95
  C 240.31 201.95 237.74 202.00 236.76 198.61
  A 0.75 0.74 81.5 0 0 236.05 198.08
  Q 228.71 198.19 224.77 204.05
  Q 223.56 205.85 225.48 206.85
  L 242.09 215.51
  A 0.38 0.38 0.0 0 1 242.15 216.14
  L 230.33 225.34
  A 0.86 0.86 0.0 0 1 228.95 224.52
  C 229.58 220.74 235.40 219.76 232.33 215.13
  C 230.30 212.06 229.17 208.09 224.51 208.69
  C 218.79 209.43 202.27 217.86 217.87 222.34
  C 221.87 223.48 224.57 224.96 227.99 226.76
  A 0.90 0.90 0.0 0 1 228.21 228.18
  Q 222.97 233.57 216.67 237.66
  A 0.29 0.29 0.0 0 1 216.22 237.46
  L 213.72 221.84
  A 0.87 0.87 0.0 0 0 213.24 221.19
  Q 209.22 219.31 206.01 222.01
  Q 195.88 230.52 179.82 245.83
  Q 178.74 246.86 178.11 248.32
  A 0.74 0.74 0.0 0 0 178.27 249.15
  Q 182.02 252.78 188.20 256.28
  Q 201.65 263.90 215.22 271.29
  C 218.41 273.03 224.07 276.02 227.45 274.49
  C 232.79 272.08 228.49 260.28 222.75 262.07
  A 1.26 1.25 -86.6 0 0 221.99 262.75
  Q 221.69 263.42 221.09 263.67
  A 1.09 1.09 0.0 0 1 220.14 263.61
  L 211.46 258.80
  A 0.73 0.72 -69.3 0 1 211.11 258.02
  Q 211.30 257.18 212.10 256.47"
/>
<path stroke="#6b1d1f" vector-effect="non-scaling-stroke" d="
  M 330.79 175.00
  C 331.16 171.40 329.85 169.28 326.19 168.52
  Q 320.64 167.36 316.35 163.49
  A 1.17 1.15 -26.1 0 0 315.45 163.19
  Q 312.99 163.43 310.69 164.68
  Q 308.06 166.11 310.77 167.37
  L 319.25 171.33
  A 1.33 1.31 46.8 0 0 320.26 171.37
  C 323.51 170.19 323.61 168.08 327.80 169.38
  A 1.50 1.50 0.0 0 1 328.68 171.53
  L 326.72 175.15
  A 0.64 0.63 -57.2 0 0 326.89 175.97
  L 329.00 177.54"
/>
<path stroke="#6b1d1f" vector-effect="non-scaling-stroke" d="
  M 251.75 240.79
  C 249.57 240.15 241.96 237.10 243.09 233.83
  C 243.11 233.78 246.44 227.77 245.94 227.28
  A 0.57 0.57 0.0 0 0 245.14 227.28
  L 235.89 236.21
  A 0.87 0.87 0.0 0 0 236.26 237.68
  C 240.46 238.87 245.98 242.31 251.00 241.29"
/>
<path stroke="#6b1d1f" vector-effect="non-scaling-stroke" d="
  M 221.04 258.75
  C 218.97 257.09 214.04 251.51 212.10 256.47"
/>
<path stroke="#6b1d1f" vector-effect="non-scaling-stroke" d="
  M 293.04 150.67
  L 291.92 153.78
  A 0.95 0.94 31.1 0 0 292.18 154.81
  L 299.57 161.52
  A 0.77 0.77 0.0 0 0 300.57 161.54
  L 305.23 157.73
  Q 305.97 157.13 305.03 156.94
  Q 298.41 155.57 294.05 150.49
  A 0.60 0.59 34.6 0 0 293.04 150.67"
/>
<path stroke="#6b1d1f" vector-effect="non-scaling-stroke" d="
  M 308.47 177.42
  C 303.83 173.30 301.91 173.23 298.45 178.59
  A 1.08 1.07 52.9 0 0 298.33 179.49
  C 299.93 184.39 306.04 179.44 308.42 178.01
  A 0.37 0.37 0.0 0 0 308.47 177.42"
/>
<path stroke="#6b1d1f" vector-effect="non-scaling-stroke" d="
  M 296.33 180.93
  Q 296.62 180.73 296.68 180.41
  Q 296.76 180.01 296.46 180.28
  Q 292.29 183.96 287.99 187.51
  C 284.66 190.24 283.43 193.69 279.22 195.63
  Q 274.64 197.73 271.53 201.80
  A 0.34 0.34 0.0 0 0 271.74 202.34
  Q 278.12 203.47 282.49 208.07
  A 1.59 1.57 53.8 0 0 284.39 208.37
  Q 287.48 206.69 290.98 206.72
  A 0.39 0.39 0.0 0 0 291.36 206.20
  C 290.25 203.07 286.79 203.93 284.59 205.01
  A 1.58 1.57 -23.1 0 1 282.41 204.14
  Q 280.09 197.83 283.87 192.94
  C 287.50 188.23 292.01 195.73 295.63 194.03
  C 298.06 192.88 294.70 187.37 294.02 185.44
  A 1.11 1.08 -41.3 0 1 294.09 184.56
  L 295.84 181.46
  Q 296.02 181.14 296.33 180.93"
/>
<path stroke="#6b1d1f" vector-effect="non-scaling-stroke" d="
  M 275.06 215.44
  Q 270.39 212.21 265.70 208.83
  Q 264.25 207.79 262.97 209.03
  L 258.50 213.32
  A 0.46 0.46 0.0 0 0 258.67 214.09
  Q 264.05 215.86 268.85 218.88
  A 1.63 1.62 56.8 0 0 269.93 219.11
  Q 273.24 218.61 275.43 216.02
  A 0.33 0.33 0.0 0 0 275.40 215.57
  Q 275.26 215.43 275.06 215.44"
/>
<path stroke="#6b1d1f" vector-effect="non-scaling-stroke" d="
  M 254.51 221.75
  C 251.63 219.25 247.83 223.18 246.88 225.74
  A 0.73 0.73 0.0 0 0 247.09 226.55
  C 251.71 230.56 255.40 228.92 260.26 226.64
  Q 260.72 226.42 260.30 226.15
  Q 257.25 224.12 254.51 221.75"
/>
<path stroke="#6b1d1f" vector-effect="non-scaling-stroke" d="
  M 215.66 238.60
  C 211.82 237.06 209.37 235.47 206.87 232.05
  A 0.39 0.39 0.0 0 0 206.25 232.03
  C 203.14 235.80 210.98 240.46 213.63 242.39
  A 1.42 1.42 0.0 0 0 215.88 241.34
  L 216.04 239.20
  A 0.60 0.60 0.0 0 0 215.66 238.60"
/>
<path stroke="#6b1d1f" vector-effect="non-scaling-stroke" d="
  M 235.79 252.71
  A 1.37 1.37 0.0 0 1 233.76 252.48
  C 230.27 247.56 232.20 245.00 234.16 240.17
  A 0.70 0.70 0.0 0 0 233.19 239.28
  Q 227.33 242.29 222.55 246.79
  A 0.50 0.50 0.0 0 0 222.57 247.54
  Q 226.60 250.90 231.51 252.53
  C 235.09 253.72 237.76 255.22 241.05 256.53
  A 0.60 0.59 89.7 0 0 241.82 255.75
  L 239.62 250.41
  A 0.62 0.62 0.0 0 0 238.63 250.18
  L 235.79 252.71"
/>
<path stroke="#6b1d1f" vector-effect="non-scaling-stroke" d="
  M 205.25 247.60
  Q 200.15 246.19 196.94 242.09
  A 0.53 0.52 -36.5 0 0 196.24 241.99
  Q 193.75 243.72 192.95 246.60
  A 0.87 0.86 28.3 0 0 193.22 247.49
  C 196.49 250.36 202.28 254.07 205.82 249.26
  A 1.07 1.06 26.2 0 0 205.25 247.60"
/>
</g>
<path fill="#e8e7ed" d="
  M 0.00 0.00
  L 512.00 0.00
  L 512.00 512.00
  L 0.00 512.00
  L 0.00 0.00
  Z
  M 142.39 447.94
  L 142.13 448.00
  Q 141.82 448.06 142.06 448.28
  Q 143.61 449.67 145.52 450.32
  C 150.43 452.00 154.77 454.80 159.62 456.74
  Q 169.31 460.62 170.33 461.04
  C 183.67 466.57 198.08 469.46 212.24 472.04
  Q 215.72 472.67 220.25 472.74
  Q 228.81 472.88 238.57 474.40
  Q 242.08 474.95 244.30 474.31
  A 1.65 1.61 -43.7 0 1 245.25 474.32
  Q 247.71 475.07 250.24 475.08
  C 255.21 475.10 260.15 476.04 264.75 476.01
  Q 278.56 475.93 294.50 473.77
  Q 298.18 473.27 300.73 472.65
  C 306.49 471.25 311.50 470.70 316.95 469.59
  C 321.80 468.60 326.61 466.17 331.70 464.75
  Q 340.20 462.38 348.05 458.34
  Q 349.70 457.49 351.50 457.03
  A 0.55 0.52 -80.0 0 0 351.84 456.78
  L 352.05 456.43
  A 0.79 0.77 -75.9 0 1 352.65 456.06
  C 356.61 455.70 359.77 453.49 362.56 452.30
  Q 370.66 448.87 378.55 444.98
  C 380.10 444.22 381.37 442.76 383.29 441.77
  C 387.68 439.51 391.40 435.65 395.81 433.11
  Q 403.38 428.74 409.41 422.45
  Q 411.27 420.52 413.98 418.55
  C 417.93 415.68 419.58 411.46 423.66 409.38
  A 1.42 1.41 87.7 0 0 424.34 408.64
  Q 424.91 407.23 425.98 406.16
  Q 426.37 405.77 426.90 405.59
  Q 428.98 404.91 429.55 402.87
  A 1.51 1.48 -13.1 0 1 430.02 402.13
  C 433.31 399.38 433.72 396.05 435.84 392.99
  C 440.31 386.53 444.19 380.17 448.95 373.49
  Q 462.22 354.86 471.25 332.53
  Q 471.51 331.88 471.51 331.40
  A 1.25 1.25 0.0 0 1 471.85 330.57
  C 473.98 328.38 474.47 325.71 475.44 323.48
  Q 481.94 308.52 484.23 292.33
  A 0.77 0.76 85.8 0 1 484.76 291.71
  Q 485.57 291.47 486.06 290.72
  Q 486.33 290.31 486.72 290.01
  L 488.86 288.40
  A 0.20 0.20 0.0 0 0 488.83 288.06
  L 488.56 287.93
  A 0.20 0.19 -62.2 0 1 488.48 287.66
  Q 492.21 281.03 492.48 277.69
  C 493.22 268.34 490.19 253.37 491.17 241.18
  C 491.54 236.61 489.95 232.48 490.19 228.25
  Q 490.64 220.04 489.06 213.63
  C 488.59 211.72 488.97 209.93 488.60 208.03
  Q 488.10 205.46 488.14 203.91
  C 488.25 199.57 486.15 197.73 485.36 194.29
  Q 484.72 191.47 484.03 189.94
  C 482.29 186.09 481.58 181.72 479.99 178.23
  C 478.52 174.98 477.37 172.61 475.91 168.64
  Q 475.21 166.74 473.70 164.33
  C 471.29 160.50 471.49 153.94 466.97 150.06
  C 464.76 148.18 463.85 146.13 462.02 144.02
  A 1.34 1.32 -66.3 0 1 461.70 143.18
  Q 461.66 140.55 459.23 139.69
  A 1.45 1.43 82.6 0 1 458.50 139.12
  Q 456.00 135.26 456.46 130.69
  A 1.65 1.62 35.0 0 0 456.30 129.83
  Q 455.17 127.54 456.53 124.84
  A 1.07 1.06 -55.2 0 0 456.31 123.59
  C 451.74 119.21 453.41 110.25 449.83 105.42
  Q 447.79 102.67 443.12 94.07
  C 441.15 90.45 436.52 91.75 434.50 86.62
  A 1.25 1.23 -89.6 0 0 433.86 85.96
  Q 429.85 84.21 427.69 81.81
  C 425.22 79.05 428.38 76.84 426.89 74.59
  Q 424.06 70.31 419.19 68.05
  C 416.86 66.97 415.84 65.89 416.00 63.34
  A 1.32 1.30 27.4 0 0 415.70 62.43
  L 413.41 59.68
  A 1.81 1.75 -10.0 0 0 412.61 59.14
  C 409.59 58.18 409.97 55.94 408.02 54.24
  Q 399.37 46.72 390.02 42.48
  C 382.19 38.93 376.15 35.29 367.61 34.40
  A 1.83 1.78 -54.2 0 0 366.65 34.57
  C 364.51 35.59 362.45 33.50 360.26 33.08
  Q 357.35 32.53 356.86 32.33
  Q 340.81 25.93 324.26 20.99
  Q 320.51 19.87 317.03 15.88
  A 0.93 0.93 0.0 0 0 316.20 15.57
  Q 312.53 16.06 311.13 12.63
  A 0.95 0.95 0.0 0 0 310.48 12.06
  L 308.65 11.61
  A 1.61 1.52 74.1 0 1 307.86 11.14
  C 305.49 8.52 303.08 10.38 300.62 10.46
  Q 295.42 10.64 290.30 11.65
  C 284.01 12.88 276.50 11.44 270.11 10.98
  C 261.47 10.35 252.91 11.88 244.35 12.92
  C 237.58 13.74 231.34 16.27 223.88 15.88
  Q 219.03 15.62 216.13 15.87
  C 210.28 16.36 205.12 15.01 200.59 17.45
  C 195.73 20.06 190.56 22.32 184.91 22.55
  C 180.88 22.71 176.19 22.70 172.56 24.71
  Q 169.12 26.62 165.26 27.41
  C 161.67 28.15 157.67 30.48 153.94 32.31
  C 151.24 33.63 148.28 33.85 145.80 35.18
  Q 142.77 36.82 139.86 38.68
  C 136.51 40.83 133.01 40.93 129.23 41.86
  A 1.31 1.28 -81.5 0 0 128.41 42.48
  Q 126.45 45.92 122.41 45.82
  A 1.25 1.21 23.6 0 0 121.55 46.14
  Q 117.70 49.66 112.08 53.09
  Q 110.48 54.06 110.36 56.22
  A 0.93 0.90 80.6 0 1 109.82 57.00
  Q 107.84 57.87 105.69 58.25
  A 2.01 1.97 -69.3 0 0 104.76 58.68
  L 102.72 60.40
  A 1.92 1.90 79.5 0 0 102.15 61.24
  C 101.18 64.23 99.34 64.10 97.12 65.84
  Q 95.86 66.83 94.67 67.13
  C 92.48 67.68 89.86 67.89 88.15 69.42
  C 84.13 73.02 81.55 77.68 78.38 81.46
  Q 76.31 83.93 74.28 86.43
  C 71.93 89.32 70.74 92.26 69.49 95.64
  A 0.27 0.27 0.0 0 0 69.74 96.00
  L 70.01 96.00
  A 0.21 0.21 0.0 0 1 70.20 96.15
  L 71.00 99.12
  A 1.17 1.17 0.0 0 1 70.90 100.00
  Q 68.97 103.46 67.49 107.12
  C 66.18 110.33 63.85 111.47 60.74 109.77
  A 1.12 1.11 46.5 0 0 59.77 109.74
  Q 57.12 110.95 55.07 113.04
  A 0.73 0.72 58.0 0 0 54.90 113.79
  Q 55.42 115.26 55.13 116.75
  A 0.71 0.71 0.0 0 1 54.56 117.32
  C 50.25 118.11 48.14 117.12 46.64 122.34
  Q 46.09 124.25 43.09 128.63
  Q 39.41 134.00 37.44 140.16
  C 36.52 143.05 36.87 146.45 35.47 149.74
  Q 35.27 150.23 35.32 150.76
  Q 35.71 154.77 33.36 157.98
  A 1.63 1.60 -29.6 0 0 33.05 159.07
  Q 33.10 159.77 32.45 160.02
  A 0.75 0.74 77.3 0 0 31.98 160.77
  C 32.37 165.47 31.11 169.56 31.51 174.24
  A 1.41 1.38 -30.5 0 1 31.27 175.14
  C 28.39 179.32 28.40 182.97 27.41 187.43
  C 26.54 191.37 25.81 194.90 24.53 199.12
  Q 22.95 204.32 22.21 209.75
  C 21.81 212.72 23.40 215.06 23.71 217.50
  C 23.89 218.88 24.05 223.54 25.46 223.96
  A 0.56 0.55 12.7 0 1 25.85 224.57
  C 16.95 285.26 38.84 346.12 79.69 390.90
  C 85.66 397.43 91.79 401.91 97.02 409.59
  C 104.66 420.80 109.98 425.40 121.31 431.70
  C 125.18 433.85 128.64 438.23 132.19 440.76
  Q 137.26 444.38 142.39 447.91
  Q 142.44 447.93 142.39 447.94
  Z"
/>
<path fill="#f0f0f3" d="
  M 142.39 447.91
  Q 137.26 444.38 132.19 440.76
  C 128.64 438.23 125.18 433.85 121.31 431.70
  C 109.98 425.40 104.66 420.80 97.02 409.59
  C 91.79 401.91 85.66 397.43 79.69 390.90
  C 38.84 346.12 16.95 285.26 25.85 224.57
  A 0.56 0.55 12.7 0 0 25.46 223.96
  C 24.05 223.54 23.89 218.88 23.71 217.50
  C 23.40 215.06 21.81 212.72 22.21 209.75
  Q 22.95 204.32 24.53 199.12
  C 25.81 194.90 26.54 191.37 27.41 187.43
  C 28.40 182.97 28.39 179.32 31.27 175.14
  A 1.41 1.38 -30.5 0 0 31.51 174.24
  C 31.11 169.56 32.37 165.47 31.98 160.77
  A 0.75 0.74 77.3 0 1 32.45 160.02
  Q 33.10 159.77 33.05 159.07
  A 1.63 1.60 -29.6 0 1 33.36 157.98
  Q 35.71 154.77 35.32 150.76
  Q 35.27 150.23 35.47 149.74
  C 36.87 146.45 36.52 143.05 37.44 140.16
  Q 39.41 134.00 43.09 128.63
  Q 46.09 124.25 46.64 122.34
  C 48.14 117.12 50.25 118.11 54.56 117.32
  A 0.71 0.71 0.0 0 0 55.13 116.75
  Q 55.42 115.26 54.90 113.79
  A 0.73 0.72 58.0 0 1 55.07 113.04
  Q 57.12 110.95 59.77 109.74
  A 1.12 1.11 46.5 0 1 60.74 109.77
  C 63.85 111.47 66.18 110.33 67.49 107.12
  Q 68.97 103.46 70.90 100.00
  A 1.17 1.17 0.0 0 0 71.00 99.12
  L 70.20 96.15
  A 0.21 0.21 0.0 0 0 70.01 96.00
  L 69.74 96.00
  A 0.27 0.27 0.0 0 1 69.49 95.64
  C 70.74 92.26 71.93 89.32 74.28 86.43
  Q 76.31 83.93 78.38 81.46
  C 81.55 77.68 84.13 73.02 88.15 69.42
  C 89.86 67.89 92.48 67.68 94.67 67.13
  Q 95.86 66.83 97.12 65.84
  C 99.34 64.10 101.18 64.23 102.15 61.24
  A 1.92 1.90 79.5 0 1 102.72 60.40
  L 104.76 58.68
  A 2.01 1.97 -69.3 0 1 105.69 58.25
  Q 107.84 57.87 109.82 57.00
  A 0.93 0.90 80.6 0 0 110.36 56.22
  Q 110.48 54.06 112.08 53.09
  Q 117.70 49.66 121.55 46.14
  A 1.25 1.21 23.6 0 1 122.41 45.82
  Q 126.45 45.92 128.41 42.48
  A 1.31 1.28 -81.5 0 1 129.23 41.86
  C 133.01 40.93 136.51 40.83 139.86 38.68
  Q 142.77 36.82 145.80 35.18
  C 148.28 33.85 151.24 33.63 153.94 32.31
  C 157.67 30.48 161.67 28.15 165.26 27.41
  Q 169.12 26.62 172.56 24.71
  C 176.19 22.70 180.88 22.71 184.91 22.55
  C 190.56 22.32 195.73 20.06 200.59 17.45
  C 205.12 15.01 210.28 16.36 216.13 15.87
  Q 219.03 15.62 223.88 15.88
  C 231.34 16.27 237.58 13.74 244.35 12.92
  C 252.91 11.88 261.47 10.35 270.11 10.98
  C 276.50 11.44 284.01 12.88 290.30 11.65
  Q 295.42 10.64 300.62 10.46
  C 303.08 10.38 305.49 8.52 307.86 11.14
  A 1.61 1.52 74.1 0 0 308.65 11.61
  L 310.48 12.06
  A 0.95 0.95 0.0 0 1 311.13 12.63
  Q 312.53 16.06 316.20 15.57
  A 0.93 0.93 0.0 0 1 317.03 15.88
  Q 320.51 19.87 324.26 20.99
  Q 340.81 25.93 356.86 32.33
  Q 357.35 32.53 360.26 33.08
  C 362.45 33.50 364.51 35.59 366.65 34.57
  A 1.83 1.78 -54.2 0 1 367.61 34.40
  C 376.15 35.29 382.19 38.93 390.02 42.48
  Q 399.37 46.72 408.02 54.24
  C 409.97 55.94 409.59 58.18 412.61 59.14
  A 1.81 1.75 -10.0 0 1 413.41 59.68
  L 415.70 62.43
  A 1.32 1.30 27.4 0 1 416.00 63.34
  C 415.84 65.89 416.86 66.97 419.19 68.05
  Q 424.06 70.31 426.89 74.59
  C 428.38 76.84 425.22 79.05 427.69 81.81
  Q 429.85 84.21 433.86 85.96
  A 1.25 1.23 -89.6 0 1 434.50 86.62
  C 436.52 91.75 441.15 90.45 443.12 94.07
  Q 447.79 102.67 449.83 105.42
  C 453.41 110.25 451.74 119.21 456.31 123.59
  A 1.07 1.06 -55.2 0 1 456.53 124.84
  Q 455.17 127.54 456.30 129.83
  A 1.65 1.62 35.0 0 1 456.46 130.69
  Q 456.00 135.26 458.50 139.12
  A 1.45 1.43 82.6 0 0 459.23 139.69
  Q 461.66 140.55 461.70 143.18
  A 1.34 1.32 -66.3 0 0 462.02 144.02
  C 463.85 146.13 464.76 148.18 466.97 150.06
  C 471.49 153.94 471.29 160.50 473.70 164.33
  Q 475.21 166.74 475.91 168.64
  C 477.37 172.61 478.52 174.98 479.99 178.23
  C 481.58 181.72 482.29 186.09 484.03 189.94
  Q 484.72 191.47 485.36 194.29
  C 486.15 197.73 488.25 199.57 488.14 203.91
  Q 488.10 205.46 488.60 208.03
  C 488.97 209.93 488.59 211.72 489.06 213.63
  Q 490.64 220.04 490.19 228.25
  C 489.95 232.48 491.54 236.61 491.17 241.18
  C 490.19 253.37 493.22 268.34 492.48 277.69
  Q 492.21 281.03 488.48 287.66
  A 0.20 0.19 -62.2 0 0 488.56 287.93
  L 488.83 288.06
  A 0.20 0.20 0.0 0 1 488.86 288.40
  L 486.72 290.01
  Q 486.33 290.31 486.06 290.72
  Q 485.57 291.47 484.76 291.71
  A 0.77 0.76 85.8 0 0 484.23 292.33
  Q 481.94 308.52 475.44 323.48
  C 474.47 325.71 473.98 328.38 471.85 330.57
  A 1.25 1.25 0.0 0 0 471.51 331.40
  Q 471.51 331.88 471.25 332.53
  Q 462.22 354.86 448.95 373.49
  C 444.19 380.17 440.31 386.53 435.84 392.99
  C 433.72 396.05 433.31 399.38 430.02 402.13
  A 1.51 1.48 -13.1 0 0 429.55 402.87
  Q 428.98 404.91 426.90 405.59
  Q 426.37 405.77 425.98 406.16
  Q 424.91 407.23 424.34 408.64
  A 1.42 1.41 87.7 0 1 423.66 409.38
  C 419.58 411.46 417.93 415.68 413.98 418.55
  Q 411.27 420.52 409.41 422.45
  Q 403.38 428.74 395.81 433.11
  C 391.40 435.65 387.68 439.51 383.29 441.77
  C 381.37 442.76 380.10 444.22 378.55 444.98
  Q 370.66 448.87 362.56 452.30
  C 359.77 453.49 356.61 455.70 352.65 456.06
  A 0.79 0.77 -75.9 0 0 352.05 456.43
  L 351.84 456.78
  A 0.55 0.52 -80.0 0 1 351.50 457.03
  Q 349.70 457.49 348.05 458.34
  Q 340.20 462.38 331.70 464.75
  C 326.61 466.17 321.80 468.60 316.95 469.59
  C 311.50 470.70 306.49 471.25 300.73 472.65
  Q 298.18 473.27 294.50 473.77
  Q 278.56 475.93 264.75 476.01
  C 260.15 476.04 255.21 475.10 250.24 475.08
  Q 247.71 475.07 245.25 474.32
  A 1.65 1.61 -43.7 0 0 244.30 474.31
  Q 242.08 474.95 238.57 474.40
  Q 228.81 472.88 220.25 472.74
  Q 215.72 472.67 212.24 472.04
  C 198.08 469.46 183.67 466.57 170.33 461.04
  Q 169.31 460.62 159.62 456.74
  C 154.77 454.80 150.43 452.00 145.52 450.32
  Q 143.61 449.67 142.06 448.28
  Q 141.82 448.06 142.13 448.00
  L 142.39 447.94
  Q 142.44 447.93 142.39 447.91
  Z
  M 78.79 226.50
  Q 72.75 232.65 66.50 238.61
  C 59.54 245.24 69.24 250.24 74.61 253.90
  C 72.70 260.66 73.84 268.44 73.76 275.46
  A 1.63 1.60 -61.7 0 0 74.03 276.39
  C 76.22 279.74 82.78 282.74 86.25 284.96
  Q 85.79 285.06 85.37 284.99
  A 0.39 0.38 -75.3 0 0 84.95 285.24
  L 84.46 286.71
  A 1.79 1.78 48.8 0 0 84.40 287.69
  C 88.32 306.09 98.40 321.86 106.97 338.30
  C 110.10 344.28 113.46 350.10 117.23 354.52
  C 129.29 368.66 144.59 383.32 163.44 392.36
  C 169.22 395.14 173.84 392.96 177.58 399.52
  A 1.67 1.64 87.7 0 0 178.27 400.17
  Q 187.48 404.71 190.68 405.85
  C 200.67 409.41 205.99 411.07 213.74 417.01
  Q 214.13 417.31 214.34 417.76
  C 217.19 423.98 233.10 423.68 238.69 423.64
  Q 239.62 423.64 240.22 423.20
  A 0.80 0.79 38.2 0 1 241.02 423.11
  Q 242.22 423.64 243.52 423.38
  Q 244.01 423.28 243.52 423.21
  L 243.00 423.15
  Q 242.42 423.07 242.98 422.90
  Q 255.13 419.27 267.77 419.04
  C 276.34 418.89 284.90 416.66 293.31 415.25
  C 303.50 413.54 313.17 410.38 323.14 407.76
  C 331.05 405.68 337.61 402.31 346.32 398.17
  C 367.55 388.07 383.29 374.56 397.47 356.02
  C 403.93 347.57 409.48 337.00 415.32 327.38
  C 421.53 317.15 427.38 303.94 430.74 295.20
  Q 438.49 275.01 439.71 251.02
  C 440.01 245.31 439.09 239.17 438.74 233.20
  Q 437.98 220.12 427.97 211.94
  C 429.98 210.00 437.41 204.19 437.47 201.69
  Q 437.68 192.74 436.75 183.28
  C 440.43 179.29 446.34 174.34 448.97 169.71
  C 452.52 163.46 432.76 155.02 428.23 152.83
  Q 429.75 147.81 427.75 143.73
  Q 427.31 142.83 422.64 136.79
  C 416.47 128.83 410.60 122.55 402.27 115.60
  Q 385.60 101.70 370.18 86.42
  C 366.73 83.00 364.63 79.04 360.39 76.47
  C 351.42 71.02 343.46 66.21 333.68 59.90
  C 317.64 49.56 298.91 45.64 280.49 43.30
  C 269.72 41.92 258.50 40.13 248.11 40.74
  C 235.28 41.49 223.81 44.18 210.06 47.03
  C 202.10 48.67 194.83 52.89 186.06 56.80
  Q 165.02 66.18 147.85 83.12
  C 136.22 94.60 124.11 105.00 111.46 115.29
  Q 111.35 115.38 111.48 115.41
  L 111.77 115.49
  A 0.37 0.37 0.0 0 1 111.95 116.09
  C 104.86 123.88 98.25 132.58 90.06 139.20
  C 85.79 142.65 82.10 153.64 80.13 158.87
  C 77.57 165.63 80.35 170.11 81.40 176.25
  A 0.30 0.30 0.0 0 0 81.71 176.51
  L 82.04 176.50
  A 0.37 0.36 88.5 0 1 82.42 176.87
  Q 82.44 180.23 81.09 183.28
  A 0.35 0.35 0.0 0 1 80.60 183.44
  L 80.35 183.30
  A 0.43 0.43 0.0 0 0 79.72 183.61
  Q 79.46 185.28 78.45 186.59
  A 1.46 1.41 61.7 0 0 78.16 187.62
  Q 78.43 190.11 79.95 192.17
  A 1.42 1.40 -59.9 0 1 80.21 193.18
  Q 80.10 194.16 79.56 194.88
  C 78.17 196.73 76.85 199.47 76.57 201.05
  C 76.19 203.26 79.46 204.59 77.40 206.74
  A 1.36 1.32 69.1 0 0 77.04 207.58
  Q 76.56 217.19 78.79 226.50
  Z"
/>
<path fill="#ffffff" d="
  M 428.23 152.83
  Q 408.93 143.06 400.74 138.52
  C 357.73 114.69 314.04 91.87 270.18 69.65
  C 260.92 64.96 255.98 62.78 247.58 70.33
  C 190.53 121.54 134.85 174.22 78.79 226.50
  Q 76.56 217.19 77.04 207.58
  A 1.36 1.32 69.1 0 1 77.40 206.74
  C 79.46 204.59 76.19 203.26 76.57 201.05
  C 76.85 199.47 78.17 196.73 79.56 194.88
  Q 80.10 194.16 80.21 193.18
  A 1.42 1.40 -59.9 0 0 79.95 192.17
  Q 78.43 190.11 78.16 187.62
  A 1.46 1.41 61.7 0 1 78.45 186.59
  Q 79.46 185.28 79.72 183.61
  A 0.43 0.43 0.0 0 1 80.35 183.30
  L 80.60 183.44
  A 0.35 0.35 0.0 0 0 81.09 183.28
  Q 82.44 180.23 82.42 176.87
  A 0.37 0.36 88.5 0 0 82.04 176.50
  L 81.71 176.51
  A 0.30 0.30 0.0 0 1 81.40 176.25
  C 80.35 170.11 77.57 165.63 80.13 158.87
  C 82.10 153.64 85.79 142.65 90.06 139.20
  C 98.25 132.58 104.86 123.88 111.95 116.09
  A 0.37 0.37 0.0 0 0 111.77 115.49
  L 111.48 115.41
  Q 111.35 115.38 111.46 115.29
  C 124.11 105.00 136.22 94.60 147.85 83.12
  Q 165.02 66.18 186.06 56.80
  C 194.83 52.89 202.10 48.67 210.06 47.03
  C 223.81 44.18 235.28 41.49 248.11 40.74
  C 258.50 40.13 269.72 41.92 280.49 43.30
  C 298.91 45.64 317.64 49.56 333.68 59.90
  C 343.46 66.21 351.42 71.02 360.39 76.47
  C 364.63 79.04 366.73 83.00 370.18 86.42
  Q 385.60 101.70 402.27 115.60
  C 410.60 122.55 416.47 128.83 422.64 136.79
  Q 427.31 142.83 427.75 143.73
  Q 429.75 147.81 428.23 152.83
  Z"
/>
<path fill="#060512" d="
  M 428.23 152.83
  C 432.76 155.02 452.52 163.46 448.97 169.71
  C 446.34 174.34 440.43 179.29 436.75 183.28
  Q 384.03 238.52 357.81 263.31
  Q 338.50 281.57 327.57 292.72
  C 322.00 298.41 315.47 304.17 309.69 310.20
  C 295.28 325.24 280.30 339.67 265.85 354.69
  C 262.97 357.67 257.46 357.86 254.24 356.02
  C 241.40 348.67 227.17 341.50 215.31 334.86
  Q 185.36 318.09 155.63 300.97
  C 128.60 285.40 101.06 270.39 74.61 253.90
  C 69.24 250.24 59.54 245.24 66.50 238.61
  Q 72.75 232.65 78.79 226.50
  C 134.85 174.22 190.53 121.54 247.58 70.33
  C 255.98 62.78 260.92 64.96 270.18 69.65
  C 314.04 91.87 357.73 114.69 400.74 138.52
  Q 408.93 143.06 428.23 152.83
  Z
  M 335.28 135.57
  C 335.19 135.32 335.27 135.40 335.06 135.29
  Q 299.37 116.88 263.81 98.19
  C 259.50 95.92 255.35 91.08 250.38 95.62
  Q 245.50 100.10 240.66 104.61
  Q 240.30 104.94 239.82 105.06
  Q 238.85 105.30 238.02 106.28
  C 233.74 111.28 226.61 116.18 223.19 119.10
  C 214.95 126.14 206.39 132.98 198.63 140.37
  Q 163.30 174.01 127.68 207.35
  C 121.42 213.21 112.40 222.78 103.45 229.46
  A 0.50 0.49 44.6 0 0 103.46 230.26
  L 104.46 231.00
  A 0.91 0.91 0.0 0 1 104.74 232.16
  C 102.66 236.26 104.99 236.92 108.23 238.73
  C 138.16 255.45 167.72 272.82 197.69 289.47
  C 218.22 300.89 238.17 313.40 258.58 325.09
  A 1.27 1.27 0.0 0 0 259.51 325.22
  C 265.86 323.59 273.63 313.60 279.12 308.36
  C 303.84 284.80 328.25 260.88 353.10 237.46
  Q 380.88 211.28 407.67 184.04
  A 0.47 0.47 0.0 0 0 407.60 183.32
  Q 400.97 178.86 401.89 170.76
  A 0.64 0.62 -77.8 0 0 401.48 170.10
  Q 396.59 168.36 388.58 163.91
  Q 374.94 156.33 335.43 135.75
  A 0.32 0.32 0.0 0 1 335.28 135.57
  Z"
/>
<path fill="#d03637" d="
  M 335.43 135.75
  Q 374.94 156.33 388.58 163.91
  Q 396.59 168.36 401.48 170.10
  A 0.64 0.62 -77.8 0 1 401.89 170.76
  Q 400.97 178.86 407.60 183.32
  A 0.47 0.47 0.0 0 1 407.67 184.04
  Q 380.88 211.28 353.10 237.46
  C 328.25 260.88 303.84 284.80 279.12 308.36
  C 273.63 313.60 265.86 323.59 259.51 325.22
  A 1.27 1.27 0.0 0 1 258.58 325.09
  C 238.17 313.40 218.22 300.89 197.69 289.47
  C 167.72 272.82 138.16 255.45 108.23 238.73
  C 104.99 236.92 102.66 236.26 104.74 232.16
  A 0.91 0.91 0.0 0 0 104.46 231.00
  L 103.46 230.26
  A 0.50 0.49 44.6 0 1 103.45 229.46
  C 112.40 222.78 121.42 213.21 127.68 207.35
  Q 163.30 174.01 198.63 140.37
  C 206.39 132.98 214.95 126.14 223.19 119.10
  C 226.61 116.18 233.74 111.28 238.02 106.28
  Q 238.85 105.30 239.82 105.06
  Q 240.30 104.94 240.66 104.61
  Q 245.50 100.10 250.38 95.62
  C 255.35 91.08 259.50 95.92 263.81 98.19
  Q 299.37 116.88 335.06 135.29
  C 335.27 135.40 335.19 135.32 335.28 135.57
  A 0.32 0.32 0.0 0 0 335.43 135.75
  Z
  M 108.44 230.06
  Q 111.31 233.62 112.11 238.32
  A 0.71 0.70 89.4 0 0 112.69 238.89
  C 121.55 240.40 128.03 245.70 135.43 249.82
  Q 188.18 279.17 240.54 309.24
  Q 246.49 312.66 252.19 316.49
  C 254.86 318.29 259.33 320.57 262.22 317.97
  Q 288.61 294.22 322.36 261.61
  Q 355.10 229.97 387.73 198.22
  C 391.12 194.92 397.44 188.38 402.61 183.75
  A 0.57 0.57 0.0 0 0 402.59 182.88
  C 399.42 180.37 394.68 176.60 397.80 172.00
  A 0.31 0.31 0.0 0 0 397.47 171.52
  Q 394.76 172.15 392.59 170.59
  C 386.03 165.88 378.56 162.88 371.48 159.09
  Q 335.66 139.92 299.45 121.48
  C 289.63 116.48 275.21 108.35 262.62 102.60
  C 260.25 101.52 259.02 100.14 257.22 98.58
  Q 255.30 96.92 253.67 98.87
  C 250.65 102.50 247.08 103.72 243.91 106.81
  Q 241.32 109.33 236.33 113.34
  Q 229.49 118.83 203.48 141.48
  Q 187.75 155.17 128.88 211.63
  C 121.18 219.01 114.03 227.71 108.23 229.54
  A 0.25 0.25 0.0 0 0 108.11 229.93
  Q 108.24 230.11 108.44 230.06
  Z"
/>
<path fill="#050306" d="
  M 108.44 230.06
  Q 108.24 230.11 108.11 229.93
  A 0.25 0.25 0.0 0 1 108.23 229.54
  C 114.03 227.71 121.18 219.01 128.88 211.63
  Q 187.75 155.17 203.48 141.48
  Q 229.49 118.83 236.33 113.34
  Q 241.32 109.33 243.91 106.81
  C 247.08 103.72 250.65 102.50 253.67 98.87
  Q 255.30 96.92 257.22 98.58
  C 259.02 100.14 260.25 101.52 262.62 102.60
  C 275.21 108.35 289.63 116.48 299.45 121.48
  Q 335.66 139.92 371.48 159.09
  C 378.56 162.88 386.03 165.88 392.59 170.59
  Q 394.76 172.15 397.47 171.52
  A 0.31 0.31 0.0 0 1 397.80 172.00
  C 394.68 176.60 399.42 180.37 402.59 182.88
  A 0.57 0.57 0.0 0 1 402.61 183.75
  C 397.44 188.38 391.12 194.92 387.73 198.22
  Q 355.10 229.97 322.36 261.61
  Q 288.61 294.22 262.22 317.97
  C 259.33 320.57 254.86 318.29 252.19 316.49
  Q 246.49 312.66 240.54 309.24
  Q 188.18 279.17 135.43 249.82
  C 128.03 245.70 121.55 240.40 112.69 238.89
  A 0.71 0.70 89.4 0 1 112.11 238.32
  Q 111.31 233.62 108.44 230.06
  Z
  M 250.61 112.59
  Q 250.64 114.27 250.01 115.52
  A 1.20 1.20 0.0 0 1 249.30 116.12
  Q 243.45 117.99 240.02 120.77
  C 225.49 132.58 208.40 147.89 193.19 162.34
  C 171.42 183.03 148.91 203.00 127.71 224.26
  C 126.48 225.49 124.69 226.32 123.23 227.45
  A 0.74 0.73 62.7 0 0 122.98 228.25
  C 124.97 235.03 129.47 238.74 135.58 241.77
  Q 152.40 250.09 168.43 259.81
  C 195.71 276.35 224.15 290.40 251.38 307.71
  A 1.58 1.52 -29.4 0 0 252.31 307.95
  C 254.93 307.81 256.70 306.93 259.29 307.84
  A 0.91 0.90 35.9 0 0 260.15 307.71
  Q 265.94 303.23 277.08 292.83
  Q 341.31 232.86 376.88 198.13
  Q 384.34 190.85 387.41 187.27
  L 390.18 184.61
  A 0.52 0.52 0.0 0 0 390.20 183.89
  Q 387.40 180.89 385.77 177.17
  C 384.18 173.51 382.83 172.70 379.54 170.98
  Q 328.46 144.34 277.19 118.05
  C 274.34 116.58 265.27 110.53 262.75 110.46
  Q 256.46 110.27 250.61 112.59
  Z"
/>
<path fill="#d03637" d="
  M 387.41 187.27
  Q 388.88 184.87 387.98 183.22
  Q 385.69 179.01 383.47 174.69
  A 1.73 1.67 1.9 0 0 382.80 174.00
  Q 372.14 168.01 361.14 162.64
  C 360.07 162.11 359.08 161.31 357.85 160.74
  C 349.68 156.93 341.92 152.21 333.71 148.49
  Q 330.31 146.94 326.10 144.44
  C 321.12 141.47 315.19 138.90 310.66 136.41
  C 296.72 128.75 282.42 121.72 268.41 114.21
  C 266.69 113.29 264.25 111.16 261.75 111.49
  Q 256.30 112.21 250.61 112.59
  Q 256.46 110.27 262.75 110.46
  C 265.27 110.53 274.34 116.58 277.19 118.05
  Q 328.46 144.34 379.54 170.98
  C 382.83 172.70 384.18 173.51 385.77 177.17
  Q 387.40 180.89 390.20 183.89
  A 0.52 0.52 0.0 0 1 390.18 184.61
  L 387.41 187.27
  Z"
/>
<path fill="#c51523" d="
  M 387.41 187.27
  Q 384.34 190.85 376.88 198.13
  Q 341.31 232.86 277.08 292.83
  Q 265.94 303.23 260.15 307.71
  A 0.91 0.90 35.9 0 1 259.29 307.84
  C 256.70 306.93 254.93 307.81 252.31 307.95
  A 1.58 1.52 -29.4 0 1 251.38 307.71
  C 224.15 290.40 195.71 276.35 168.43 259.81
  Q 152.40 250.09 135.58 241.77
  C 129.47 238.74 124.97 235.03 122.98 228.25
  A 0.74 0.73 62.7 0 1 123.23 227.45
  C 124.69 226.32 126.48 225.49 127.71 224.26
  C 148.91 203.00 171.42 183.03 193.19 162.34
  C 208.40 147.89 225.49 132.58 240.02 120.77
  Q 243.45 117.99 249.30 116.12
  A 1.20 1.20 0.0 0 0 250.01 115.52
  Q 250.64 114.27 250.61 112.59
  Q 256.30 112.21 261.75 111.49
  C 264.25 111.16 266.69 113.29 268.41 114.21
  C 282.42 121.72 296.72 128.75 310.66 136.41
  C 315.19 138.90 321.12 141.47 326.10 144.44
  Q 330.31 146.94 333.71 148.49
  C 341.92 152.21 349.68 156.93 357.85 160.74
  C 359.08 161.31 360.07 162.11 361.14 162.64
  Q 372.14 168.01 382.80 174.00
  A 1.73 1.67 1.9 0 1 383.47 174.69
  Q 385.69 179.01 387.98 183.22
  Q 388.88 184.87 387.41 187.27
  Z
  M 212.10 256.47
  Q 216.45 255.21 219.55 258.68
  A 0.84 0.83 61.1 0 0 220.40 258.93
  L 221.04 258.75
  Q 227.64 261.33 232.57 266.06
  A 1.37 1.36 -38.2 0 0 234.20 266.25
  Q 239.71 263.04 242.39 257.19
  A 1.79 1.76 -3.3 0 1 243.09 256.42
  Q 248.85 252.98 253.71 248.33
  A 0.65 0.65 0.0 0 0 253.86 247.59
  L 251.00 241.29
  L 251.75 240.79
  Q 253.61 241.41 254.16 243.30
  A 0.78 0.77 85.8 0 0 254.79 243.85
  C 258.23 244.36 262.55 241.29 264.59 239.00
  A 0.98 0.97 -34.9 0 0 264.77 238.02
  L 264.28 236.67
  Q 264.14 236.29 264.11 235.88
  L 263.72 229.32
  Q 263.61 227.53 265.12 228.51
  Q 267.28 229.91 268.53 232.17
  A 0.62 0.61 61.2 0 0 269.37 232.42
  L 279.77 226.67
  A 0.96 0.96 0.0 0 0 280.27 225.81
  Q 280.24 224.20 278.63 223.85
  A 0.50 0.50 0.0 0 1 278.26 223.21
  L 279.66 218.51
  A 0.48 0.48 0.0 0 1 280.36 218.23
  C 285.01 220.88 290.92 215.61 293.56 211.56
  A 1.34 1.33 -33.0 0 0 293.76 210.65
  L 293.51 208.97
  A 0.78 0.78 0.0 0 1 294.05 208.10
  Q 299.85 206.30 303.96 201.88
  A 1.47 1.46 46.6 0 0 304.01 199.95
  L 299.94 195.04
  A 0.60 0.59 -32.4 0 1 300.15 194.12
  Q 304.50 192.11 305.67 196.54
  A 0.73 0.73 0.0 0 0 306.51 197.08
  Q 312.11 196.11 315.43 191.66
  A 2.37 2.35 42.1 0 0 315.27 188.64
  Q 312.00 185.10 311.76 180.26
  A 0.52 0.51 9.5 0 1 312.47 179.76
  Q 317.24 181.72 319.17 186.43
  A 0.44 0.44 0.0 0 0 319.80 186.64
  C 322.53 185.03 329.06 180.61 329.00 177.54
  Q 330.18 176.49 330.79 175.00
  C 333.88 173.92 340.13 170.99 340.25 167.13
  Q 340.34 164.31 337.56 162.95
  Q 317.28 153.07 297.26 142.66
  Q 295.58 141.79 294.21 141.74
  C 289.75 141.61 279.24 152.49 276.15 155.72
  A 0.90 0.90 0.0 0 0 276.46 157.17
  C 282.90 159.81 288.23 164.10 294.19 167.45
  A 0.63 0.63 0.0 0 1 294.28 168.49
  L 283.99 176.97
  A 0.36 0.35 -27.1 0 1 283.42 176.79
  Q 281.78 170.80 280.26 164.76
  C 279.40 161.31 277.97 159.53 274.50 158.97
  A 1.34 1.33 -59.8 0 0 273.46 159.25
  L 261.84 168.79
  A 1.42 1.42 0.0 0 0 261.92 171.05
  Q 264.41 172.81 267.49 172.83
  A 1.50 1.49 64.2 0 1 268.37 173.14
  C 271.80 175.82 275.62 179.71 280.16 180.18
  Q 280.65 180.24 280.34 180.62
  C 278.71 182.65 274.30 186.85 271.45 186.39
  C 267.02 185.69 267.10 174.61 260.30 172.58
  A 1.27 1.24 -51.0 0 0 259.30 172.70
  Q 253.27 176.35 248.16 181.15
  A 1.09 1.09 0.0 0 0 248.45 182.93
  C 254.89 185.87 260.44 190.00 266.91 192.99
  A 0.50 0.50 0.0 0 1 267.11 193.72
  Q 265.70 195.81 263.43 196.97
  A 1.00 0.99 -42.2 0 1 262.46 196.93
  C 257.74 193.96 250.59 188.62 245.24 187.51
  A 1.37 1.32 -52.7 0 0 244.32 187.65
  C 242.39 188.74 241.19 189.27 238.84 189.77
  C 235.56 190.48 234.72 194.80 238.46 196.25
  Q 246.83 199.48 254.44 204.44
  A 0.56 0.56 0.0 0 1 254.64 205.16
  C 251.85 211.10 244.77 209.78 243.43 203.61
  A 0.91 0.90 -85.2 0 0 242.88 202.95
  C 240.31 201.95 237.74 202.00 236.76 198.61
  A 0.75 0.74 81.5 0 0 236.05 198.08
  Q 228.71 198.19 224.77 204.05
  Q 223.56 205.85 225.48 206.85
  L 242.09 215.51
  A 0.38 0.38 0.0 0 1 242.15 216.14
  L 230.33 225.34
  A 0.86 0.86 0.0 0 1 228.95 224.52
  C 229.58 220.74 235.40 219.76 232.33 215.13
  C 230.30 212.06 229.17 208.09 224.51 208.69
  C 218.79 209.43 202.27 217.86 217.87 222.34
  C 221.87 223.48 224.57 224.96 227.99 226.76
  A 0.90 0.90 0.0 0 1 228.21 228.18
  Q 222.97 233.57 216.67 237.66
  A 0.29 0.29 0.0 0 1 216.22 237.46
  L 213.72 221.84
  A 0.87 0.87 0.0 0 0 213.24 221.19
  Q 209.22 219.31 206.01 222.01
  Q 195.88 230.52 179.82 245.83
  Q 178.74 246.86 178.11 248.32
  A 0.74 0.74 0.0 0 0 178.27 249.15
  Q 182.02 252.78 188.20 256.28
  Q 201.65 263.90 215.22 271.29
  C 218.41 273.03 224.07 276.02 227.45 274.49
  C 232.79 272.08 228.49 260.28 222.75 262.07
  A 1.26 1.25 -86.6 0 0 221.99 262.75
  Q 221.69 263.42 221.09 263.67
  A 1.09 1.09 0.0 0 1 220.14 263.61
  L 211.46 258.80
  A 0.73 0.72 -69.3 0 1 211.11 258.02
  Q 211.30 257.18 212.10 256.47
  Z"
/>
<path fill="#050306" d="
  M 330.79 175.00
  C 331.16 171.40 329.85 169.28 326.19 168.52
  Q 320.64 167.36 316.35 163.49
  A 1.17 1.15 -26.1 0 0 315.45 163.19
  Q 312.99 163.43 310.69 164.68
  Q 308.06 166.11 310.77 167.37
  L 319.25 171.33
  A 1.33 1.31 46.8 0 0 320.26 171.37
  C 323.51 170.19 323.61 168.08 327.80 169.38
  A 1.50 1.50 0.0 0 1 328.68 171.53
  L 326.72 175.15
  A 0.64 0.63 -57.2 0 0 326.89 175.97
  L 329.00 177.54
  C 329.06 180.61 322.53 185.03 319.80 186.64
  A 0.44 0.44 0.0 0 1 319.17 186.43
  Q 317.24 181.72 312.47 179.76
  A 0.52 0.51 9.5 0 0 311.76 180.26
  Q 312.00 185.10 315.27 188.64
  A 2.37 2.35 42.1 0 1 315.43 191.66
  Q 312.11 196.11 306.51 197.08
  A 0.73 0.73 0.0 0 1 305.67 196.54
  Q 304.50 192.11 300.15 194.12
  A 0.60 0.59 -32.4 0 0 299.94 195.04
  L 304.01 199.95
  A 1.47 1.46 46.6 0 1 303.96 201.88
  Q 299.85 206.30 294.05 208.10
  A 0.78 0.78 0.0 0 0 293.51 208.97
  L 293.76 210.65
  A 1.34 1.33 -33.0 0 1 293.56 211.56
  C 290.92 215.61 285.01 220.88 280.36 218.23
  A 0.48 0.48 0.0 0 0 279.66 218.51
  L 278.26 223.21
  A 0.50 0.50 0.0 0 0 278.63 223.85
  Q 280.24 224.20 280.27 225.81
  A 0.96 0.96 0.0 0 1 279.77 226.67
  L 269.37 232.42
  A 0.62 0.61 61.2 0 1 268.53 232.17
  Q 267.28 229.91 265.12 228.51
  Q 263.61 227.53 263.72 229.32
  L 264.11 235.88
  Q 264.14 236.29 264.28 236.67
  L 264.77 238.02
  A 0.98 0.97 -34.9 0 1 264.59 239.00
  C 262.55 241.29 258.23 244.36 254.79 243.85
  A 0.78 0.77 85.8 0 1 254.16 243.30
  Q 253.61 241.41 251.75 240.79
  C 249.57 240.15 241.96 237.10 243.09 233.83
  C 243.11 233.78 246.44 227.77 245.94 227.28
  A 0.57 0.57 0.0 0 0 245.14 227.28
  L 235.89 236.21
  A 0.87 0.87 0.0 0 0 236.26 237.68
  C 240.46 238.87 245.98 242.31 251.00 241.29
  L 253.86 247.59
  A 0.65 0.65 0.0 0 1 253.71 248.33
  Q 248.85 252.98 243.09 256.42
  A 1.79 1.76 -3.3 0 0 242.39 257.19
  Q 239.71 263.04 234.20 266.25
  A 1.37 1.36 -38.2 0 1 232.57 266.06
  Q 227.64 261.33 221.04 258.75
  C 218.97 257.09 214.04 251.51 212.10 256.47
  Q 211.30 257.18 211.11 258.02
  A 0.73 0.72 -69.3 0 0 211.46 258.80
  L 220.14 263.61
  A 1.09 1.09 0.0 0 0 221.09 263.67
  Q 221.69 263.42 221.99 262.75
  A 1.26 1.25 -86.6 0 1 222.75 262.07
  C 228.49 260.28 232.79 272.08 227.45 274.49
  C 224.07 276.02 218.41 273.03 215.22 271.29
  Q 201.65 263.90 188.20 256.28
  Q 182.02 252.78 178.27 249.15
  A 0.74 0.74 0.0 0 1 178.11 248.32
  Q 178.74 246.86 179.82 245.83
  Q 195.88 230.52 206.01 222.01
  Q 209.22 219.31 213.24 221.19
  A 0.87 0.87 0.0 0 1 213.72 221.84
  L 216.22 237.46
  A 0.29 0.29 0.0 0 0 216.67 237.66
  Q 222.97 233.57 228.21 228.18
  A 0.90 0.90 0.0 0 0 227.99 226.76
  C 224.57 224.96 221.87 223.48 217.87 222.34
  C 202.27 217.86 218.79 209.43 224.51 208.69
  C 229.17 208.09 230.30 212.06 232.33 215.13
  C 235.40 219.76 229.58 220.74 228.95 224.52
  A 0.86 0.86 0.0 0 0 230.33 225.34
  L 242.15 216.14
  A 0.38 0.38 0.0 0 0 242.09 215.51
  L 225.48 206.85
  Q 223.56 205.85 224.77 204.05
  Q 228.71 198.19 236.05 198.08
  A 0.75 0.74 81.5 0 1 236.76 198.61
  C 237.74 202.00 240.31 201.95 242.88 202.95
  A 0.91 0.90 -85.2 0 1 243.43 203.61
  C 244.77 209.78 251.85 211.10 254.64 205.16
  A 0.56 0.56 0.0 0 0 254.44 204.44
  Q 246.83 199.48 238.46 196.25
  C 234.72 194.80 235.56 190.48 238.84 189.77
  C 241.19 189.27 242.39 188.74 244.32 187.65
  A 1.37 1.32 -52.7 0 1 245.24 187.51
  C 250.59 188.62 257.74 193.96 262.46 196.93
  A 1.00 0.99 -42.2 0 0 263.43 196.97
  Q 265.70 195.81 267.11 193.72
  A 0.50 0.50 0.0 0 0 266.91 192.99
  C 260.44 190.00 254.89 185.87 248.45 182.93
  A 1.09 1.09 0.0 0 1 248.16 181.15
  Q 253.27 176.35 259.30 172.70
  A 1.27 1.24 -51.0 0 1 260.30 172.58
  C 267.10 174.61 267.02 185.69 271.45 186.39
  C 274.30 186.85 278.71 182.65 280.34 180.62
  Q 280.65 180.24 280.16 180.18
  C 275.62 179.71 271.80 175.82 268.37 173.14
  A 1.50 1.49 64.2 0 0 267.49 172.83
  Q 264.41 172.81 261.92 171.05
  A 1.42 1.42 0.0 0 1 261.84 168.79
  L 273.46 159.25
  A 1.34 1.33 -59.8 0 1 274.50 158.97
  C 277.97 159.53 279.40 161.31 280.26 164.76
  Q 281.78 170.80 283.42 176.79
  A 0.36 0.35 -27.1 0 0 283.99 176.97
  L 294.28 168.49
  A 0.63 0.63 0.0 0 0 294.19 167.45
  C 288.23 164.10 282.90 159.81 276.46 157.17
  A 0.90 0.90 0.0 0 1 276.15 155.72
  C 279.24 152.49 289.75 141.61 294.21 141.74
  Q 295.58 141.79 297.26 142.66
  Q 317.28 153.07 337.56 162.95
  Q 340.34 164.31 340.25 167.13
  C 340.13 170.99 333.88 173.92 330.79 175.00
  Z
  M 293.04 150.67
  L 291.92 153.78
  A 0.95 0.94 31.1 0 0 292.18 154.81
  L 299.57 161.52
  A 0.77 0.77 0.0 0 0 300.57 161.54
  L 305.23 157.73
  Q 305.97 157.13 305.03 156.94
  Q 298.41 155.57 294.05 150.49
  A 0.60 0.59 34.6 0 0 293.04 150.67
  Z
  M 308.47 177.42
  C 303.83 173.30 301.91 173.23 298.45 178.59
  A 1.08 1.07 52.9 0 0 298.33 179.49
  C 299.93 184.39 306.04 179.44 308.42 178.01
  A 0.37 0.37 0.0 0 0 308.47 177.42
  Z
  M 296.33 180.93
  Q 296.62 180.73 296.68 180.41
  Q 296.76 180.01 296.46 180.28
  Q 292.29 183.96 287.99 187.51
  C 284.66 190.24 283.43 193.69 279.22 195.63
  Q 274.64 197.73 271.53 201.80
  A 0.34 0.34 0.0 0 0 271.74 202.34
  Q 278.12 203.47 282.49 208.07
  A 1.59 1.57 53.8 0 0 284.39 208.37
  Q 287.48 206.69 290.98 206.72
  A 0.39 0.39 0.0 0 0 291.36 206.20
  C 290.25 203.07 286.79 203.93 284.59 205.01
  A 1.58 1.57 -23.1 0 1 282.41 204.14
  Q 280.09 197.83 283.87 192.94
  C 287.50 188.23 292.01 195.73 295.63 194.03
  C 298.06 192.88 294.70 187.37 294.02 185.44
  A 1.11 1.08 -41.3 0 1 294.09 184.56
  L 295.84 181.46
  Q 296.02 181.14 296.33 180.93
  Z
  M 275.06 215.44
  Q 270.39 212.21 265.70 208.83
  Q 264.25 207.79 262.97 209.03
  L 258.50 213.32
  A 0.46 0.46 0.0 0 0 258.67 214.09
  Q 264.05 215.86 268.85 218.88
  A 1.63 1.62 56.8 0 0 269.93 219.11
  Q 273.24 218.61 275.43 216.02
  A 0.33 0.33 0.0 0 0 275.40 215.57
  Q 275.26 215.43 275.06 215.44
  Z
  M 254.51 221.75
  C 251.63 219.25 247.83 223.18 246.88 225.74
  A 0.73 0.73 0.0 0 0 247.09 226.55
  C 251.71 230.56 255.40 228.92 260.26 226.64
  Q 260.72 226.42 260.30 226.15
  Q 257.25 224.12 254.51 221.75
  Z
  M 215.66 238.60
  C 211.82 237.06 209.37 235.47 206.87 232.05
  A 0.39 0.39 0.0 0 0 206.25 232.03
  C 203.14 235.80 210.98 240.46 213.63 242.39
  A 1.42 1.42 0.0 0 0 215.88 241.34
  L 216.04 239.20
  A 0.60 0.60 0.0 0 0 215.66 238.60
  Z
  M 235.79 252.71
  A 1.37 1.37 0.0 0 1 233.76 252.48
  C 230.27 247.56 232.20 245.00 234.16 240.17
  A 0.70 0.70 0.0 0 0 233.19 239.28
  Q 227.33 242.29 222.55 246.79
  A 0.50 0.50 0.0 0 0 222.57 247.54
  Q 226.60 250.90 231.51 252.53
  C 235.09 253.72 237.76 255.22 241.05 256.53
  A 0.60 0.59 89.7 0 0 241.82 255.75
  L 239.62 250.41
  A 0.62 0.62 0.0 0 0 238.63 250.18
  L 235.79 252.71
  Z
  M 205.25 247.60
  Q 200.15 246.19 196.94 242.09
  A 0.53 0.52 -36.5 0 0 196.24 241.99
  Q 193.75 243.72 192.95 246.60
  A 0.87 0.86 28.3 0 0 193.22 247.49
  C 196.49 250.36 202.28 254.07 205.82 249.26
  A 1.07 1.06 26.2 0 0 205.25 247.60
  Z"
/>
<path fill="#d03637" d="
  M 293.04 150.67
  A 0.60 0.59 34.6 0 1 294.05 150.49
  Q 298.41 155.57 305.03 156.94
  Q 305.97 157.13 305.23 157.73
  L 300.57 161.54
  A 0.77 0.77 0.0 0 1 299.57 161.52
  L 292.18 154.81
  A 0.95 0.94 31.1 0 1 291.92 153.78
  L 293.04 150.67
  Z"
/>
<path fill="#d03637" d="
  M 330.79 175.00
  Q 330.18 176.49 329.00 177.54
  L 326.89 175.97
  A 0.64 0.63 -57.2 0 1 326.72 175.15
  L 328.68 171.53
  A 1.50 1.50 0.0 0 0 327.80 169.38
  C 323.61 168.08 323.51 170.19 320.26 171.37
  A 1.33 1.31 46.8 0 1 319.25 171.33
  L 310.77 167.37
  Q 308.06 166.11 310.69 164.68
  Q 312.99 163.43 315.45 163.19
  A 1.17 1.15 -26.1 0 1 316.35 163.49
  Q 320.64 167.36 326.19 168.52
  C 329.85 169.28 331.16 171.40 330.79 175.00
  Z"
/>
<path fill="#d03637" d="
  M 298.45 178.59
  C 301.91 173.23 303.83 173.30 308.47 177.42
  A 0.37 0.37 0.0 0 1 308.42 178.01
  C 306.04 179.44 299.93 184.39 298.33 179.49
  A 1.08 1.07 52.9 0 1 298.45 178.59
  Z"
/>
<path fill="#d03637" d="
  M 295.84 181.46
  L 294.09 184.56
  A 1.11 1.08 -41.3 0 0 294.02 185.44
  C 294.70 187.37 298.06 192.88 295.63 194.03
  C 292.01 195.73 287.50 188.23 283.87 192.94
  Q 280.09 197.83 282.41 204.14
  A 1.58 1.57 -23.1 0 0 284.59 205.01
  C 286.79 203.93 290.25 203.07 291.36 206.20
  A 0.39 0.39 0.0 0 1 290.98 206.72
  Q 287.48 206.69 284.39 208.37
  A 1.59 1.57 53.8 0 1 282.49 208.07
  Q 278.12 203.47 271.74 202.34
  A 0.34 0.34 0.0 0 1 271.53 201.80
  Q 274.64 197.73 279.22 195.63
  C 283.43 193.69 284.66 190.24 287.99 187.51
  Q 292.29 183.96 296.46 180.28
  Q 296.76 180.01 296.68 180.41
  Q 296.62 180.73 296.33 180.93
  Q 296.02 181.14 295.84 181.46
  Z"
/>
<path fill="#c51523" d="
  M 436.75 183.28
  Q 437.68 192.74 437.47 201.69
  C 437.41 204.19 429.98 210.00 427.97 211.94
  C 410.58 229.68 393.29 247.56 375.59 265.00
  C 361.11 279.27 347.14 294.03 332.71 308.36
  Q 299.24 341.61 266.63 375.79
  Q 266.11 366.88 266.85 356.56
  A 0.57 0.57 0.0 0 0 265.75 356.32
  Q 264.78 358.89 264.86 362.50
  Q 265.03 370.26 263.73 377.99
  A 0.83 0.83 0.0 0 1 263.18 378.64
  Q 261.54 379.21 261.50 380.71
  C 258.11 381.51 256.60 380.30 253.85 378.85
  Q 222.68 362.51 186.28 341.50
  Q 149.59 320.33 86.25 284.96
  C 82.78 282.74 76.22 279.74 74.03 276.39
  A 1.63 1.60 -61.7 0 1 73.76 275.46
  C 73.84 268.44 72.70 260.66 74.61 253.90
  C 101.06 270.39 128.60 285.40 155.63 300.97
  Q 185.36 318.09 215.31 334.86
  C 227.17 341.50 241.40 348.67 254.24 356.02
  C 257.46 357.86 262.97 357.67 265.85 354.69
  C 280.30 339.67 295.28 325.24 309.69 310.20
  C 315.47 304.17 322.00 298.41 327.57 292.72
  Q 338.50 281.57 357.81 263.31
  Q 384.03 238.52 436.75 183.28
  Z"
/>
<path fill="#d03637" d="
  M 275.06 215.44
  Q 275.26 215.43 275.40 215.57
  A 0.33 0.33 0.0 0 1 275.43 216.02
  Q 273.24 218.61 269.93 219.11
  A 1.63 1.62 56.8 0 1 268.85 218.88
  Q 264.05 215.86 258.67 214.09
  A 0.46 0.46 0.0 0 1 258.50 213.32
  L 262.97 209.03
  Q 264.25 207.79 265.70 208.83
  Q 270.39 212.21 275.06 215.44
  Z"
/>
<path fill="#ffffff" d="
  M 427.97 211.94
  Q 437.98 220.12 438.74 233.20
  C 439.09 239.17 440.01 245.31 439.71 251.02
  Q 438.49 275.01 430.74 295.20
  C 427.38 303.94 421.53 317.15 415.32 327.38
  C 409.48 337.00 403.93 347.57 397.47 356.02
  C 383.29 374.56 367.55 388.07 346.32 398.17
  C 337.61 402.31 331.05 405.68 323.14 407.76
  C 313.17 410.38 303.50 413.54 293.31 415.25
  C 284.90 416.66 276.34 418.89 267.77 419.04
  Q 255.13 419.27 242.98 422.90
  Q 242.42 423.07 243.00 423.15
  L 243.52 423.21
  Q 244.01 423.28 243.52 423.38
  Q 242.22 423.64 241.02 423.11
  A 0.80 0.79 38.2 0 0 240.22 423.20
  Q 239.62 423.64 238.69 423.64
  C 233.10 423.68 217.19 423.98 214.34 417.76
  Q 214.13 417.31 213.74 417.01
  C 205.99 411.07 200.67 409.41 190.68 405.85
  Q 187.48 404.71 178.27 400.17
  A 1.67 1.64 87.7 0 1 177.58 399.52
  C 173.84 392.96 169.22 395.14 163.44 392.36
  C 144.59 383.32 129.29 368.66 117.23 354.52
  C 113.46 350.10 110.10 344.28 106.97 338.30
  C 98.40 321.86 88.32 306.09 84.40 287.69
  A 1.79 1.78 48.8 0 1 84.46 286.71
  L 84.95 285.24
  A 0.39 0.38 -75.3 0 1 85.37 284.99
  Q 85.79 285.06 86.25 284.96
  Q 149.59 320.33 186.28 341.50
  Q 222.68 362.51 253.85 378.85
  C 256.60 380.30 258.11 381.51 261.50 380.71
  Q 266.06 379.69 266.63 375.79
  Q 299.24 341.61 332.71 308.36
  C 347.14 294.03 361.11 279.27 375.59 265.00
  C 393.29 247.56 410.58 229.68 427.97 211.94
  Z"
/>
<path fill="#d03637" d="
  M 254.51 221.75
  Q 257.25 224.12 260.30 226.15
  Q 260.72 226.42 260.26 226.64
  C 255.40 228.92 251.71 230.56 247.09 226.55
  A 0.73 0.73 0.0 0 1 246.88 225.74
  C 247.83 223.18 251.63 219.25 254.51 221.75
  Z"
/>
<path fill="#d03637" d="
  M 251.75 240.79
  L 251.00 241.29
  C 245.98 242.31 240.46 238.87 236.26 237.68
  A 0.87 0.87 0.0 0 1 235.89 236.21
  L 245.14 227.28
  A 0.57 0.57 0.0 0 1 245.94 227.28
  C 246.44 227.77 243.11 233.78 243.09 233.83
  C 241.96 237.10 249.57 240.15 251.75 240.79
  Z"
/>
<path fill="#d03637" d="
  M 206.87 232.05
  C 209.37 235.47 211.82 237.06 215.66 238.60
  A 0.60 0.60 0.0 0 1 216.04 239.20
  L 215.88 241.34
  A 1.42 1.42 0.0 0 1 213.63 242.39
  C 210.98 240.46 203.14 235.80 206.25 232.03
  A 0.39 0.39 0.0 0 1 206.87 232.05
  Z"
/>
<path fill="#d03637" d="
  M 235.79 252.71
  L 238.63 250.18
  A 0.62 0.62 0.0 0 1 239.62 250.41
  L 241.82 255.75
  A 0.60 0.59 89.7 0 1 241.05 256.53
  C 237.76 255.22 235.09 253.72 231.51 252.53
  Q 226.60 250.90 222.57 247.54
  A 0.50 0.50 0.0 0 1 222.55 246.79
  Q 227.33 242.29 233.19 239.28
  A 0.70 0.70 0.0 0 1 234.16 240.17
  C 232.20 245.00 230.27 247.56 233.76 252.48
  A 1.37 1.37 0.0 0 0 235.79 252.71
  Z"
/>
<path fill="#d03637" d="
  M 205.25 247.60
  A 1.07 1.06 26.2 0 1 205.82 249.26
  C 202.28 254.07 196.49 250.36 193.22 247.49
  A 0.87 0.86 28.3 0 1 192.95 246.60
  Q 193.75 243.72 196.24 241.99
  A 0.53 0.52 -36.5 0 1 196.94 242.09
  Q 200.15 246.19 205.25 247.60
  Z"
/>
<path fill="#d03637" d="
  M 221.04 258.75
  L 220.40 258.93
  A 0.84 0.83 61.1 0 1 219.55 258.68
  Q 216.45 255.21 212.10 256.47
  C 214.04 251.51 218.97 257.09 221.04 258.75
  Z"
/>
<path fill="#050306" d="
  M 266.63 375.79
  Q 266.06 379.69 261.50 380.71
  Q 261.54 379.21 263.18 378.64
  A 0.83 0.83 0.0 0 0 263.73 377.99
  Q 265.03 370.26 264.86 362.50
  Q 264.78 358.89 265.75 356.32
  A 0.57 0.57 0.0 0 1 266.85 356.56
  Q 266.11 366.88 266.63 375.79
  Z"
/>
</svg>
