<?xml version="1.0" encoding="UTF-8" standalone="no"?>
<!DOCTYPE svg PUBLIC "-//W3C//DTD SVG 1.1//EN" "http://www.w3.org/Graphics/SVG/1.1/DTD/svg11.dtd">
<svg xmlns="http://www.w3.org/2000/svg" version="1.1" viewBox="0 0 512 512">
<g stroke-width="2.00" fill="none" stroke-linecap="butt">
<path stroke="#610e1f" vector-effect="non-scaling-stroke" d="
  M 436.96 184.00
  Q 436.12 183.91 435.41 184.66
  Q 404.73 216.98 369.15 252.25
  C 350.68 270.56 331.35 288.06 313.24 306.74
  C 297.92 322.53 282.38 338.43 266.65 353.79
  C 265.84 354.58 264.97 356.08 263.52 356.54
  Q 258.43 358.15 253.52 355.42
  C 227.31 340.81 207.44 330.87 174.84 311.81
  C 141.59 292.38 107.95 273.64 74.66 254.27
  A 0.29 0.28 40.6 0 0 74.34 254.29
  Q 74.23 254.37 74.21 254.50"
/>
<path stroke="#610e1f" vector-effect="non-scaling-stroke" d="
  M 265.79 378.00
  L 266.81 356.96
  A 0.57 0.57 0.0 0 0 265.73 356.67
  Q 264.81 358.45 264.83 361.01
  C 264.87 366.74 265.33 374.94 263.00 380.21"
/>
<path stroke="#6c1e26" vector-effect="non-scaling-stroke" d="
  M 198.05 140.95
  C 169.05 168.30 141.83 194.27 111.15 223.22
  Q 106.58 227.54 102.70 232.60
  A 0.98 0.98 0.0 0 0 102.55 233.48
  Q 103.44 236.39 107.00 238.25
  C 125.51 247.92 148.68 261.90 170.99 274.37
  Q 209.91 296.13 248.09 319.18
  C 251.33 321.13 255.29 322.99 258.82 325.11
  A 1.18 1.16 52.7 0 0 259.73 325.24
  Q 262.57 324.46 264.94 322.19
  Q 301.44 287.13 337.86 251.99
  C 360.00 230.61 382.51 209.78 403.89 187.61
  C 405.49 185.95 405.77 183.59 404.82 181.72
  C 403.03 178.20 399.75 169.86 396.37 168.05
  Q 327.15 130.93 305.58 119.91
  Q 276.79 105.20 259.67 95.63
  Q 256.48 93.84 256.43 93.82
  C 252.04 92.10 241.99 103.54 238.02 106.83
  C 224.55 117.99 210.79 128.95 198.05 140.95"
/>
<path stroke="#6c1e26" vector-effect="non-scaling-stroke" d="
  M 166.12 176.23
  C 147.74 193.94 129.03 211.25 110.84 229.20
  A 1.57 1.52 74.0 0 0 110.40 230.03
  C 109.35 235.28 115.20 238.54 119.61 240.81
  C 125.23 243.70 129.87 246.65 135.47 249.76
  Q 181.55 275.32 244.66 311.91
  C 249.19 314.54 254.00 318.55 259.24 319.27
  A 1.58 1.51 33.6 0 0 260.19 319.10
  Q 262.52 317.82 263.46 316.96
  C 307.02 277.05 349.29 235.59 391.74 194.49
  C 394.12 192.18 399.96 187.30 398.70 183.62
  A 1.48 1.47 44.7 0 1 398.69 182.66
  L 399.21 181.07
  A 0.97 0.95 -54.5 0 0 399.07 180.19
  C 396.68 177.03 394.83 172.42 391.72 170.15
  C 387.07 166.77 381.46 164.25 377.25 162.00
  Q 336.76 140.37 295.82 119.60
  C 287.62 115.44 278.51 110.31 269.74 105.83
  C 265.64 103.74 260.85 99.97 255.46 98.12
  A 0.87 0.85 -55.1 0 0 254.62 98.28
  Q 249.08 103.08 234.44 114.94
  Q 204.80 138.95 166.12 176.23"
/>
<path stroke="#6c1e26" vector-effect="non-scaling-stroke" d="
  M 381.29 172.00
  Q 344.59 152.77 307.76 133.80
  Q 285.55 122.36 263.31 110.85"
/>
<path stroke="#660d1b" vector-effect="non-scaling-stroke" d="
  M 263.31 110.85
  C 258.56 103.43 251.46 111.01 247.44 114.43
  C 233.30 126.46 218.94 138.35 205.36 150.99
  C 187.45 167.65 169.85 184.67 151.72 201.08
  Q 139.22 212.40 127.47 224.51
  C 126.35 225.66 124.76 226.29 123.51 227.19
  A 1.50 1.49 -30.4 0 0 123.03 229.01
  C 124.76 232.83 126.34 236.00 130.05 238.32
  Q 136.16 242.12 146.67 247.33
  C 157.73 252.82 172.63 262.55 184.89 269.47
  Q 213.06 285.38 241.22 301.33
  C 243.34 302.53 255.35 311.55 258.68 309.18
  Q 262.48 306.49 269.88 299.62
  C 305.23 266.79 330.53 243.04 362.77 211.77
  Q 383.26 191.90 390.48 184.39
  A 0.80 0.80 0.0 0 0 390.66 183.56
  Q 388.04 176.05 381.29 172.00"
/>
<path stroke="#cc262e" vector-effect="non-scaling-stroke" d="
  M 263.31 110.85
  Q 283.05 122.72 303.79 132.72
  C 309.26 135.36 315.16 138.91 321.05 141.69
  C 325.53 143.81 329.78 146.63 334.39 148.87
  C 349.76 156.32 364.78 164.43 379.93 172.30
  C 380.51 172.60 380.90 172.46 381.29 172.00"
/>
</g>
<path fill="#060512" d="
  M 436.96 184.00
  Q 436.12 183.91 435.41 184.66
  Q 404.73 216.98 369.15 252.25
  C 350.68 270.56 331.35 288.06 313.24 306.74
  C 297.92 322.53 282.38 338.43 266.65 353.79
  C 265.84 354.58 264.97 356.08 263.52 356.54
  Q 258.43 358.15 253.52 355.42
  C 227.31 340.81 207.44 330.87 174.84 311.81
  C 141.59 292.38 107.95 273.64 74.66 254.27
  A 0.29 0.28 40.6 0 0 74.34 254.29
  Q 74.23 254.37 74.21 254.50
  C 72.41 250.05 61.63 247.85 64.21 241.50
  Q 64.76 240.13 67.67 237.29
  C 86.54 218.92 106.15 201.47 125.25 183.37
  Q 155.87 154.36 186.75 125.63
  C 206.60 107.17 226.93 89.22 246.82 70.80
  C 251.35 66.60 255.94 63.92 261.70 65.76
  Q 267.03 67.47 279.08 73.91
  Q 301.31 85.80 323.77 97.27
  C 366.05 118.87 403.58 140.82 443.26 160.42
  Q 446.32 161.93 449.26 166.60
  A 1.36 1.36 0.0 0 1 449.45 167.51
  C 448.59 173.08 440.64 178.38 436.96 184.00
  Z
  M 198.05 140.95
  C 169.05 168.30 141.83 194.27 111.15 223.22
  Q 106.58 227.54 102.70 232.60
  A 0.98 0.98 0.0 0 0 102.55 233.48
  Q 103.44 236.39 107.00 238.25
  C 125.51 247.92 148.68 261.90 170.99 274.37
  Q 209.91 296.13 248.09 319.18
  C 251.33 321.13 255.29 322.99 258.82 325.11
  A 1.18 1.16 52.7 0 0 259.73 325.24
  Q 262.57 324.46 264.94 322.19
  Q 301.44 287.13 337.86 251.99
  C 360.00 230.61 382.51 209.78 403.89 187.61
  C 405.49 185.95 405.77 183.59 404.82 181.72
  C 403.03 178.20 399.75 169.86 396.37 168.05
  Q 327.15 130.93 305.58 119.91
  Q 276.79 105.20 259.67 95.63
  Q 256.48 93.84 256.43 93.82
  C 252.04 92.10 241.99 103.54 238.02 106.83
  C 224.55 117.99 210.79 128.95 198.05 140.95
  Z"
/>
<path fill="#d23639" d="
  M 111.15 223.22
  C 141.83 194.27 169.05 168.30 198.05 140.95
  C 210.79 128.95 224.55 117.99 238.02 106.83
  C 241.99 103.54 252.04 92.10 256.43 93.82
  Q 256.48 93.84 259.67 95.63
  Q 276.79 105.20 305.58 119.91
  Q 327.15 130.93 396.37 168.05
  C 399.75 169.86 403.03 178.20 404.82 181.72
  C 405.77 183.59 405.49 185.95 403.89 187.61
  C 382.51 209.78 360.00 230.61 337.86 251.99
  Q 301.44 287.13 264.94 322.19
  Q 262.57 324.46 259.73 325.24
  A 1.18 1.16 52.7 0 1 258.82 325.11
  C 255.29 322.99 251.33 321.13 248.09 319.18
  Q 209.91 296.13 170.99 274.37
  C 148.68 261.90 125.51 247.92 107.00 238.25
  Q 103.44 236.39 102.55 233.48
  A 0.98 0.98 0.0 0 1 102.70 232.60
  Q 106.58 227.54 111.15 223.22
  Z
  M 166.12 176.23
  C 147.74 193.94 129.03 211.25 110.84 229.20
  A 1.57 1.52 74.0 0 0 110.40 230.03
  C 109.35 235.28 115.20 238.54 119.61 240.81
  C 125.23 243.70 129.87 246.65 135.47 249.76
  Q 181.55 275.32 244.66 311.91
  C 249.19 314.54 254.00 318.55 259.24 319.27
  A 1.58 1.51 33.6 0 0 260.19 319.10
  Q 262.52 317.82 263.46 316.96
  C 307.02 277.05 349.29 235.59 391.74 194.49
  C 394.12 192.18 399.96 187.30 398.70 183.62
  A 1.48 1.47 44.7 0 1 398.69 182.66
  L 399.21 181.07
  A 0.97 0.95 -54.5 0 0 399.07 180.19
  C 396.68 177.03 394.83 172.42 391.72 170.15
  C 387.07 166.77 381.46 164.25 377.25 162.00
  Q 336.76 140.37 295.82 119.60
  C 287.62 115.44 278.51 110.31 269.74 105.83
  C 265.64 103.74 260.85 99.97 255.46 98.12
  A 0.87 0.85 -55.1 0 0 254.62 98.28
  Q 249.08 103.08 234.44 114.94
  Q 204.80 138.95 166.12 176.23
  Z"
/>
<path fill="#060512" d="
  M 166.12 176.23
  Q 204.80 138.95 234.44 114.94
  Q 249.08 103.08 254.62 98.28
  A 0.87 0.85 -55.1 0 1 255.46 98.12
  C 260.85 99.97 265.64 103.74 269.74 105.83
  C 278.51 110.31 287.62 115.44 295.82 119.60
  Q 336.76 140.37 377.25 162.00
  C 381.46 164.25 387.07 166.77 391.72 170.15
  C 394.83 172.42 396.68 177.03 399.07 180.19
  A 0.97 0.95 -54.5 0 1 399.21 181.07
  L 398.69 182.66
  A 1.48 1.47 44.7 0 0 398.70 183.62
  C 399.96 187.30 394.12 192.18 391.74 194.49
  C 349.29 235.59 307.02 277.05 263.46 316.96
  Q 262.52 317.82 260.19 319.10
  A 1.58 1.51 33.6 0 1 259.24 319.27
  C 254.00 318.55 249.19 314.54 244.66 311.91
  Q 181.55 275.32 135.47 249.76
  C 129.87 246.65 125.23 243.70 119.61 240.81
  C 115.20 238.54 109.35 235.28 110.40 230.03
  A 1.57 1.52 74.0 0 1 110.84 229.20
  C 129.03 211.25 147.74 193.94 166.12 176.23
  Z
  M 381.29 172.00
  Q 344.59 152.77 307.76 133.80
  Q 285.55 122.36 263.31 110.85
  C 258.56 103.43 251.46 111.01 247.44 114.43
  C 233.30 126.46 218.94 138.35 205.36 150.99
  C 187.45 167.65 169.85 184.67 151.72 201.08
  Q 139.22 212.40 127.47 224.51
  C 126.35 225.66 124.76 226.29 123.51 227.19
  A 1.50 1.49 -30.4 0 0 123.03 229.01
  C 124.76 232.83 126.34 236.00 130.05 238.32
  Q 136.16 242.12 146.67 247.33
  C 157.73 252.82 172.63 262.55 184.89 269.47
  Q 213.06 285.38 241.22 301.33
  C 243.34 302.53 255.35 311.55 258.68 309.18
  Q 262.48 306.49 269.88 299.62
  C 305.23 266.79 330.53 243.04 362.77 211.77
  Q 383.26 191.90 390.48 184.39
  A 0.80 0.80 0.0 0 0 390.66 183.56
  Q 388.04 176.05 381.29 172.00
  Z"
/>
<path fill="#c61523" d="
  M 263.31 110.85
  Q 283.05 122.72 303.79 132.72
  C 309.26 135.36 315.16 138.91 321.05 141.69
  C 325.53 143.81 329.78 146.63 334.39 148.87
  C 349.76 156.32 364.78 164.43 379.93 172.30
  C 380.51 172.60 380.90 172.46 381.29 172.00
  Q 388.04 176.05 390.66 183.56
  A 0.80 0.80 0.0 0 1 390.48 184.39
  Q 383.26 191.90 362.77 211.77
  C 330.53 243.04 305.23 266.79 269.88 299.62
  Q 262.48 306.49 258.68 309.18
  C 255.35 311.55 243.34 302.53 241.22 301.33
  Q 213.06 285.38 184.89 269.47
  C 172.63 262.55 157.73 252.82 146.67 247.33
  Q 136.16 242.12 130.05 238.32
  C 126.34 236.00 124.76 232.83 123.03 229.01
  A 1.50 1.49 -30.4 0 1 123.51 227.19
  C 124.76 226.29 126.35 225.66 127.47 224.51
  Q 139.22 212.40 151.72 201.08
  C 169.85 184.67 187.45 167.65 205.36 150.99
  C 218.94 138.35 233.30 126.46 247.44 114.43
  C 251.46 111.01 258.56 103.43 263.31 110.85
  Z"
/>
<path fill="#d23639" d="
  M 263.31 110.85
  Q 285.55 122.36 307.76 133.80
  Q 344.59 152.77 381.29 172.00
  C 380.90 172.46 380.51 172.60 379.93 172.30
  C 364.78 164.43 349.76 156.32 334.39 148.87
  C 329.78 146.63 325.53 143.81 321.05 141.69
  C 315.16 138.91 309.26 135.36 303.79 132.72
  Q 283.05 122.72 263.31 110.85
  Z"
/>
<path fill="#bc162b" d="
  M 436.96 184.00
  C 437.09 189.81 438.28 197.46 436.87 203.01
  A 1.79 1.79 0.0 0 1 436.40 203.84
  Q 411.08 229.05 386.14 254.64
  C 378.61 262.36 370.26 270.16 363.24 277.41
  Q 339.94 301.45 316.27 325.12
  C 302.61 338.77 289.27 352.88 275.53 366.53
  Q 270.18 371.85 265.79 378.00
  L 266.81 356.96
  A 0.57 0.57 0.0 0 0 265.73 356.67
  Q 264.81 358.45 264.83 361.01
  C 264.87 366.74 265.33 374.94 263.00 380.21
  Q 258.87 381.76 253.92 379.06
  C 237.91 370.30 221.64 361.85 205.84 352.78
  Q 145.30 318.01 84.43 283.83
  C 80.59 281.68 73.44 278.66 73.61 272.82
  Q 73.80 266.00 73.47 259.19
  C 73.40 257.68 74.04 256.06 74.21 254.50
  Q 74.23 254.37 74.34 254.29
  A 0.29 0.28 40.6 0 1 74.66 254.27
  C 107.95 273.64 141.59 292.38 174.84 311.81
  C 207.44 330.87 227.31 340.81 253.52 355.42
  Q 258.43 358.15 263.52 356.54
  C 264.97 356.08 265.84 354.58 266.65 353.79
  C 282.38 338.43 297.92 322.53 313.24 306.74
  C 331.35 288.06 350.68 270.56 369.15 252.25
  Q 404.73 216.98 435.41 184.66
  Q 436.12 183.91 436.96 184.00
  Z"
/>
<path fill="#060512" d="
  M 265.79 378.00
  Q 264.87 379.68 263.00 380.21
  C 265.33 374.94 264.87 366.74 264.83 361.01
  Q 264.81 358.45 265.73 356.67
  A 0.57 0.57 0.0 0 1 266.81 356.96
  L 265.79 378.00
  Z"
/>
</svg>
